<svg id="Capa_1" data-name="Capa 1" xmlns="http://www.w3.org/2000/svg" viewBox="0 0 243 229"><defs><style>.cls-1{fill:#212d5c;}</style></defs><title>Iconos</title><path class="cls-1" d="M49.88,158.58a2.42,2.42,0,0,0,1.2,2.09L108.89,194a2.39,2.39,0,0,0,3.59-2.07,67.1,67.1,0,0,1,13.91-40.83l40,23.26a2.39,2.39,0,0,0,2.39,0h0l23.12-13.35a2.39,2.39,0,0,0,1.2-2.07V105.54a2.39,2.39,0,0,0-1.19-2L88,43.13a2.39,2.39,0,0,0-2.4,0L62.51,56.47a2.39,2.39,0,0,0-1.2,2.07V112A2.39,2.39,0,0,0,62.51,114l2,1.17a71.88,71.88,0,0,0-14.65,43.39Zm138.46-1L170,168.19V120.3l18.34-10.58Zm-119.87-99L86.82,48,186,105.57l-18.35,10.58Zm61,88.85a66.61,66.61,0,0,1,5.13-5.17l23,13.29a2.39,2.39,0,0,0,3.59-2.07v-26.7a2.39,2.39,0,0,0-1.2-2.07L79.1,78A2.39,2.39,0,0,0,75.51,80v23.62a71.83,71.83,0,0,0-7.92,7.78l-1.48-.86V62.7l99.12,57.59v47.88Zm27,1.91L138.5,139a66.39,66.39,0,0,1,6.27-4.3l11.66,6.73ZM82.29,98.6q-1,.67-2,1.36V97.44ZM54.67,157.23A67.19,67.19,0,0,1,87,101.29L140.1,132a72,72,0,0,0-32.29,55.94Zm0,0"/></svg>