<?xml version="1.0" encoding="utf-8"?>
<!-- Generator: Adobe Illustrator 19.0.0, SVG Export Plug-In . SVG Version: 6.00 Build 0)  -->
<svg version="1.1" id="Capa_1" xmlns="http://www.w3.org/2000/svg" xmlns:xlink="http://www.w3.org/1999/xlink" x="0px" y="0px"
	 viewBox="0 0 225 225" enable-background="new 0 0 225 225" xml:space="preserve">
<g>
	
		<path fill-rule="evenodd" clip-rule="evenodd" fill="#FFFFFF" stroke="#FFFFFF" stroke-width="0.5669" stroke-miterlimit="22.9256" d="
		M112,8.3c57.8,0,104.7,46.9,104.7,104.7c0,57.8-46.9,104.7-104.7,104.7C54.1,217.6,7.3,170.8,7.3,113C7.3,55.1,54.1,8.3,112,8.3
		L112,8.3z M112,16.7c53.1,0,96.2,43.1,96.2,96.2s-43.1,96.2-96.2,96.2S15.7,166.1,15.7,113S58.8,16.7,112,16.7L112,16.7z"/>
	<path fill="#FFFFFF" d="M113,40.7c-8.6,0-15.4,6.7-15.4,16.2c0,9.7,6.9,16.4,15.4,16.4c8.7,0,15.6-6.7,15.6-16.4
		C128.6,47.8,122.3,40.7,113,40.7L113,40.7z M124.7,82.5c-12.8,5.4-24.9,8.4-36.2,9.1v7.4c11.2,0,11.9,0.9,11.9,14.7v42.6
		c0,13.8-0.9,15.4-11.9,15.4v7.8h50.4v-7.8c-9.9,0-11-1.7-11-15.2V84.2L124.7,82.5L124.7,82.5z"/>
</g>
</svg>
