<?xml version="1.0" encoding="utf-8"?>
<!-- Generator: Adobe Illustrator 19.0.0, SVG Export Plug-In . SVG Version: 6.00 Build 0)  -->
<svg version="1.1" id="Capa_1" xmlns="http://www.w3.org/2000/svg" xmlns:xlink="http://www.w3.org/1999/xlink" x="0px" y="0px"
	 viewBox="0 0 200 200" enable-background="new 0 0 200 200" xml:space="preserve">
<polygon id="XMLID_22_" fill-rule="evenodd" clip-rule="evenodd" fill="#DC2C1B" stroke="#FFFFFF" stroke-width="0.4819" stroke-miterlimit="10" points="
	131.6,95.9 101.5,78 101.5,95.9 101.5,113.8 101.5,113.8 116.6,122.8 131.6,131.8 131.7,131.7 131.6,95.9 "/>
<g id="XMLID_6_">
	
		<polygon id="XMLID_23_" fill-rule="evenodd" clip-rule="evenodd" fill="#676666" stroke="#FFFFFF" stroke-width="0.4819" stroke-miterlimit="10" points="
		101.6,113.7 131.7,131.6 131.7,131.6 161.8,113.7 146.7,104.7 131.7,95.7 131.6,95.7 116.6,104.7 101.6,113.7 	"/>
	
		<polygon id="XMLID_21_" fill-rule="evenodd" clip-rule="evenodd" fill="#4C4C4C" stroke="#FFFFFF" stroke-width="0.4819" stroke-miterlimit="10" points="
		131.7,131.6 131.7,167.5 146.7,158.5 161.8,149.6 161.8,149.6 161.8,131.6 161.8,113.7 131.7,131.6 	"/>
</g>
<g id="XMLID_7_">
	
		<polygon id="XMLID_20_" fill-rule="evenodd" clip-rule="evenodd" fill="#CCCCCB" stroke="#FFFFFF" stroke-width="0.4819" stroke-miterlimit="10" points="
		41.4,113.9 71.5,131.8 71.5,131.8 101.6,113.9 86.6,104.9 71.5,95.9 71.5,96 56.5,104.9 41.4,113.9 	"/>
	
		<polygon id="XMLID_19_" fill-rule="evenodd" clip-rule="evenodd" fill="#676666" stroke="#FFFFFF" stroke-width="0.4819" stroke-miterlimit="10" points="
		71.5,131.8 41.4,113.9 41.4,131.8 41.4,149.7 41.4,149.8 56.5,158.7 71.5,167.7 71.5,167.7 71.5,131.8 	"/>
</g>
<polygon id="XMLID_18_" fill-rule="evenodd" clip-rule="evenodd" fill="#BACD1F" stroke="#FFFFFF" stroke-width="0.4819" stroke-miterlimit="10" points="
	71.5,95.8 71.5,131.6 86.6,122.7 101.6,113.7 101.6,113.7 101.6,95.8 101.6,77.8 71.5,95.8 "/>
<polygon id="XMLID_17_" fill-rule="evenodd" clip-rule="evenodd" fill="#02A3D4" stroke="#FFFFFF" stroke-width="0.4819" stroke-miterlimit="10" points="
	71.5,131.8 101.6,149.8 101.6,149.7 131.7,131.8 116.6,122.8 101.6,113.9 101.5,113.9 86.5,122.8 71.5,131.8 "/>
<polygon id="XMLID_16_" fill-rule="evenodd" clip-rule="evenodd" fill="#343434" stroke="#FFFFFF" stroke-width="0.4819" stroke-miterlimit="10" points="
	101.6,149.8 71.5,131.8 71.5,149.7 71.5,167.7 71.5,167.7 86.5,176.7 101.6,185.6 101.6,185.6 101.6,149.8 "/>
<polygon id="XMLID_15_" fill-rule="evenodd" clip-rule="evenodd" fill="#686766" stroke="#FFFFFF" stroke-width="0.4819" stroke-miterlimit="10" points="
	101.6,149.8 101.6,185.6 116.6,176.7 131.7,167.7 131.7,167.7 131.7,149.7 131.7,131.8 101.6,149.7 "/>
<g id="XMLID_1_">
	
		<polygon id="XMLID_14_" fill-rule="evenodd" clip-rule="evenodd" fill="#F9ED74" stroke="#FFFFFF" stroke-width="0.4819" stroke-miterlimit="10" points="
		71.4,95.4 101.5,113.3 101.5,113.3 131.5,95.3 116.5,86.4 101.5,77.4 101.4,77.5 86.4,86.4 71.4,95.3 	"/>
	
		<polygon id="XMLID_13_" fill-rule="evenodd" clip-rule="evenodd" fill="#FAD800" stroke="#FFFFFF" stroke-width="0.4819" stroke-miterlimit="10" points="
		101.5,113.3 71.4,95.4 71.4,113.3 71.4,131.2 71.4,131.2 86.4,140.2 101.5,149.2 101.5,149.2 101.5,113.3 	"/>
	
		<polygon id="XMLID_12_" fill-rule="evenodd" clip-rule="evenodd" fill="#FBC022" stroke="#FFFFFF" stroke-width="0.4819" stroke-miterlimit="10" points="
		101.5,113.3 101.5,149.2 116.5,140.2 131.5,131.3 131.5,131.2 131.5,113.3 131.5,95.3 101.5,113.3 	"/>
</g>
<g id="XMLID_2_">
	
		<polygon id="XMLID_11_" fill-rule="evenodd" clip-rule="evenodd" fill="#838282" stroke="#FFFFFF" stroke-width="0.4819" stroke-miterlimit="10" points="
		83.2,58.4 101.6,69.3 101.6,69.3 120,58.3 110.8,52.9 101.6,47.4 101.6,47.4 92.4,52.9 83.2,58.3 	"/>
	
		<polygon id="XMLID_10_" fill-rule="evenodd" clip-rule="evenodd" fill="#B3B3B3" stroke="#FFFFFF" stroke-width="0.4819" stroke-miterlimit="10" points="
		101.6,69.3 83.2,58.4 83.2,69.3 83.2,80.3 83.2,80.3 92.4,85.8 101.6,91.3 101.6,91.3 101.6,69.3 	"/>
	
		<polygon id="XMLID_9_" fill-rule="evenodd" clip-rule="evenodd" fill="#191919" stroke="#FFFFFF" stroke-width="0.4819" stroke-miterlimit="10" points="
		101.6,69.3 101.6,91.3 110.8,85.8 120,80.3 120,80.3 120,69.3 120,58.3 101.6,69.3 	"/>
</g>
<g id="XMLID_24_">
	
		<polygon id="XMLID_5_" fill-rule="evenodd" clip-rule="evenodd" fill="#838282" stroke="#FFFFFF" stroke-width="0.4819" stroke-miterlimit="10" points="
		83.2,23.2 101.5,34.2 101.6,34.2 120,23.2 110.8,17.7 101.6,12.3 101.5,12.3 92.4,17.7 83.2,23.2 	"/>
	
		<polygon id="XMLID_4_" fill-rule="evenodd" clip-rule="evenodd" fill="#B3B3B3" stroke="#FFFFFF" stroke-width="0.4819" stroke-miterlimit="10" points="
		101.5,34.2 83.2,23.2 83.2,34.2 83.2,45.1 83.2,45.1 92.4,50.6 101.6,56.1 101.6,56.1 101.6,34.2 	"/>
	
		<polygon id="XMLID_3_" fill-rule="evenodd" clip-rule="evenodd" fill="#191919" stroke="#FFFFFF" stroke-width="0.4819" stroke-miterlimit="10" points="
		101.6,34.2 101.6,56.1 110.8,50.6 119.9,45.1 120,45.1 120,34.2 120,23.2 101.6,34.2 	"/>
</g>
</svg>
