<?xml version="1.0" encoding="utf-8"?>
<!-- Generator: Adobe Illustrator 19.0.0, SVG Export Plug-In . SVG Version: 6.00 Build 0)  -->
<svg version="1.1" id="Capa_1" xmlns="http://www.w3.org/2000/svg" xmlns:xlink="http://www.w3.org/1999/xlink" x="0px" y="0px"
	 viewBox="0 0 200 200" enable-background="new 0 0 200 200" xml:space="preserve">
<polygon id="XMLID_23_" fill-rule="evenodd" clip-rule="evenodd" fill="#676666" stroke="#FFFFFF" stroke-width="0.4819" stroke-miterlimit="10" points="
	101.5,78 131.6,95.9 131.6,95.8 161.7,77.9 146.7,69 131.6,60 131.6,60 116.6,69 101.5,77.9 "/>
<polygon id="XMLID_22_" fill-rule="evenodd" clip-rule="evenodd" fill="#DC2C1B" stroke="#FFFFFF" stroke-width="0.4819" stroke-miterlimit="10" points="
	131.6,95.9 101.5,78 101.5,95.9 101.5,113.8 101.5,113.8 116.6,122.8 131.6,131.8 131.7,131.7 131.6,95.9 "/>
<polygon id="XMLID_21_" fill-rule="evenodd" clip-rule="evenodd" fill="#4C4C4C" stroke="#FFFFFF" stroke-width="0.4819" stroke-miterlimit="10" points="
	131.6,95.9 131.7,131.7 146.7,122.8 161.7,113.8 161.7,113.8 161.7,95.9 161.7,77.9 131.6,95.8 "/>
<polygon id="XMLID_20_" fill-rule="evenodd" clip-rule="evenodd" fill="#CCCCCB" stroke="#FFFFFF" stroke-width="0.4819" stroke-miterlimit="10" points="
	41.4,77.8 71.5,95.8 71.5,95.8 101.6,77.8 86.6,68.9 71.5,59.9 71.5,59.9 56.5,68.9 41.4,77.8 "/>
<polygon id="XMLID_19_" fill-rule="evenodd" clip-rule="evenodd" fill="#676666" stroke="#FFFFFF" stroke-width="0.4819" stroke-miterlimit="10" points="
	71.5,95.8 41.4,77.8 41.4,95.8 41.4,113.7 41.4,113.7 56.5,122.7 71.5,131.7 71.5,131.6 71.5,95.8 "/>
<polygon id="XMLID_18_" fill-rule="evenodd" clip-rule="evenodd" fill="#BACD1F" stroke="#FFFFFF" stroke-width="0.4819" stroke-miterlimit="10" points="
	71.5,95.8 71.5,131.6 86.6,122.7 101.6,113.7 101.6,113.7 101.6,95.8 101.6,77.8 71.5,95.8 "/>
<polygon id="XMLID_17_" fill-rule="evenodd" clip-rule="evenodd" fill="#02A3D4" stroke="#FFFFFF" stroke-width="0.4819" stroke-miterlimit="10" points="
	71.5,131.8 101.6,149.8 101.6,149.7 131.7,131.8 116.6,122.8 101.6,113.9 101.5,113.9 86.5,122.8 71.5,131.8 "/>
<polygon id="XMLID_16_" fill-rule="evenodd" clip-rule="evenodd" fill="#343434" stroke="#FFFFFF" stroke-width="0.4819" stroke-miterlimit="10" points="
	101.6,149.8 71.5,131.8 71.5,149.7 71.5,167.7 71.5,167.7 86.5,176.7 101.6,185.6 101.6,185.6 101.6,149.8 "/>
<polygon id="XMLID_15_" fill-rule="evenodd" clip-rule="evenodd" fill="#686766" stroke="#FFFFFF" stroke-width="0.4819" stroke-miterlimit="10" points="
	101.6,149.8 101.6,185.6 116.6,176.7 131.7,167.7 131.7,167.7 131.7,149.7 131.7,131.8 101.6,149.7 "/>
<polygon id="XMLID_14_" fill-rule="evenodd" clip-rule="evenodd" fill="#F9ED74" stroke="#FFFFFF" stroke-width="0.4819" stroke-miterlimit="10" points="
	71.4,95.4 101.5,113.3 101.5,113.3 131.5,95.3 116.5,86.4 101.5,77.4 101.4,77.5 86.4,86.4 71.4,95.3 "/>
<polygon id="XMLID_13_" fill-rule="evenodd" clip-rule="evenodd" fill="#FAD800" stroke="#FFFFFF" stroke-width="0.4819" stroke-miterlimit="10" points="
	101.5,113.3 71.4,95.4 71.4,113.3 71.4,131.2 71.4,131.2 86.4,140.2 101.5,149.2 101.5,149.2 101.5,113.3 "/>
<polygon id="XMLID_12_" fill-rule="evenodd" clip-rule="evenodd" fill="#FBC022" stroke="#FFFFFF" stroke-width="0.4819" stroke-miterlimit="10" points="
	101.5,113.3 101.5,149.2 116.5,140.2 131.5,131.3 131.5,131.2 131.5,113.3 131.5,95.3 101.5,113.3 "/>
<polygon id="XMLID_11_" fill-rule="evenodd" clip-rule="evenodd" fill="#838282" stroke="#FFFFFF" stroke-width="0.4819" stroke-miterlimit="10" points="
	83.1,28.1 101.5,39.1 101.5,39 119.9,28.1 110.7,22.6 101.5,17.1 101.5,17.2 92.3,22.6 83.1,28.1 "/>
<polygon id="XMLID_10_" fill-rule="evenodd" clip-rule="evenodd" fill="#B3B3B3" stroke="#FFFFFF" stroke-width="0.4819" stroke-miterlimit="10" points="
	101.5,39.1 83.1,28.1 83.1,39.1 83.1,50 83.1,50 92.3,55.5 101.5,61 101.5,61 101.5,39.1 "/>
<polygon id="XMLID_9_" fill-rule="evenodd" clip-rule="evenodd" fill="#191919" stroke="#FFFFFF" stroke-width="0.4819" stroke-miterlimit="10" points="
	101.5,39.1 101.5,61 110.7,55.5 119.9,50 119.9,50 119.9,39.1 119.9,28.1 101.5,39 "/>
<polygon id="XMLID_8_" fill-rule="evenodd" clip-rule="evenodd" fill="#838282" stroke="#FFFFFF" stroke-width="0.4819" stroke-miterlimit="10" points="
	27.7,140.5 46.1,151.4 46.1,151.4 64.5,140.5 55.3,135 46.1,129.5 46.1,129.5 36.9,135 27.7,140.5 "/>
<polygon id="XMLID_7_" fill-rule="evenodd" clip-rule="evenodd" fill="#B3B3B3" stroke="#FFFFFF" stroke-width="0.4819" stroke-miterlimit="10" points="
	46.1,151.4 27.7,140.5 27.7,151.4 27.7,162.4 27.7,162.4 36.9,167.9 46.1,173.3 46.1,173.3 46.1,151.4 "/>
<polygon id="XMLID_6_" fill-rule="evenodd" clip-rule="evenodd" fill="#191919" stroke="#FFFFFF" stroke-width="0.4819" stroke-miterlimit="10" points="
	46.1,151.4 46.1,173.3 55.3,167.9 64.5,162.4 64.5,162.4 64.5,151.4 64.5,140.5 46.1,151.4 "/>
<polygon id="XMLID_5_" fill-rule="evenodd" clip-rule="evenodd" fill="#838282" stroke="#FFFFFF" stroke-width="0.4819" stroke-miterlimit="10" points="
	138.4,140.5 156.8,151.4 156.8,151.4 175.2,140.5 166,135 156.8,129.5 156.8,129.5 147.6,135 138.4,140.5 "/>
<polygon id="XMLID_4_" fill-rule="evenodd" clip-rule="evenodd" fill="#B3B3B3" stroke="#FFFFFF" stroke-width="0.4819" stroke-miterlimit="10" points="
	156.8,151.4 138.4,140.5 138.4,151.4 138.4,162.4 138.4,162.4 147.6,167.9 156.8,173.3 156.8,173.3 156.8,151.4 "/>
<polygon id="XMLID_3_" fill-rule="evenodd" clip-rule="evenodd" fill="#191919" stroke="#FFFFFF" stroke-width="0.4819" stroke-miterlimit="10" points="
	156.8,151.4 156.8,173.3 166,167.9 175.2,162.4 175.2,162.4 175.2,151.4 175.2,140.5 156.8,151.4 "/>
</svg>
