<?xml version="1.0" encoding="utf-8"?>
<!-- Generator: Adobe Illustrator 19.0.0, SVG Export Plug-In . SVG Version: 6.00 Build 0)  -->
<svg version="1.1" id="Capa_1" xmlns="http://www.w3.org/2000/svg" xmlns:xlink="http://www.w3.org/1999/xlink" x="0px" y="0px"
	 viewBox="0 0 200 200" enable-background="new 0 0 200 200" xml:space="preserve">
<g id="XMLID_40_">
	
		<polygon id="XMLID_43_" fill-rule="evenodd" clip-rule="evenodd" fill="#838282" stroke="#FFFFFF" stroke-width="0.4819" stroke-miterlimit="10" points="
		141.4,36.5 159.8,47.5 159.8,47.5 178.2,36.5 169,31 159.8,25.5 159.8,25.5 150.6,31 141.4,36.5 	"/>
	
		<polygon id="XMLID_42_" fill-rule="evenodd" clip-rule="evenodd" fill="#B3B3B3" stroke="#FFFFFF" stroke-width="0.4819" stroke-miterlimit="10" points="
		159.8,47.5 141.4,36.5 141.4,47.5 141.4,58.4 141.4,58.4 150.6,63.9 159.8,69.4 159.8,69.4 159.8,47.5 	"/>
	
		<polygon id="XMLID_41_" fill-rule="evenodd" clip-rule="evenodd" fill="#191919" stroke="#FFFFFF" stroke-width="0.4819" stroke-miterlimit="10" points="
		159.8,47.5 159.8,69.4 169,63.9 178.2,58.4 178.2,58.4 178.2,47.5 178.2,36.5 159.8,47.5 	"/>
</g>
<polygon id="XMLID_22_" fill-rule="evenodd" clip-rule="evenodd" fill="#DC2C1B" stroke="#FFFFFF" stroke-width="0.4819" stroke-miterlimit="10" points="
	131.6,95.9 101.5,78 101.5,95.9 101.5,113.8 101.5,113.8 116.6,122.8 131.6,131.8 131.7,131.7 131.6,95.9 "/>
<g id="XMLID_6_">
	
		<polygon id="XMLID_23_" fill-rule="evenodd" clip-rule="evenodd" fill="#676666" stroke="#FFFFFF" stroke-width="0.4819" stroke-miterlimit="10" points="
		101.6,113.7 131.7,131.6 131.7,131.6 161.8,113.7 146.7,104.7 131.7,95.7 131.6,95.7 116.6,104.7 101.6,113.7 	"/>
	
		<polygon id="XMLID_21_" fill-rule="evenodd" clip-rule="evenodd" fill="#4C4C4C" stroke="#FFFFFF" stroke-width="0.4819" stroke-miterlimit="10" points="
		131.7,131.6 131.7,167.5 146.7,158.5 161.8,149.6 161.8,149.6 161.8,131.6 161.8,113.7 131.7,131.6 	"/>
</g>
<g id="XMLID_7_">
	
		<polygon id="XMLID_20_" fill-rule="evenodd" clip-rule="evenodd" fill="#CCCCCB" stroke="#FFFFFF" stroke-width="0.4819" stroke-miterlimit="10" points="
		41.4,113.9 71.5,131.8 71.5,131.8 101.6,113.9 86.6,104.9 71.5,95.9 71.5,96 56.5,104.9 41.4,113.9 	"/>
	
		<polygon id="XMLID_19_" fill-rule="evenodd" clip-rule="evenodd" fill="#676666" stroke="#FFFFFF" stroke-width="0.4819" stroke-miterlimit="10" points="
		71.5,131.8 41.4,113.9 41.4,131.8 41.4,149.7 41.4,149.8 56.5,158.7 71.5,167.7 71.5,167.7 71.5,131.8 	"/>
</g>
<polygon id="XMLID_18_" fill-rule="evenodd" clip-rule="evenodd" fill="#BACD1F" stroke="#FFFFFF" stroke-width="0.4819" stroke-miterlimit="10" points="
	71.5,95.8 71.5,131.6 86.6,122.7 101.6,113.7 101.6,113.7 101.6,95.8 101.6,77.8 71.5,95.8 "/>
<polygon id="XMLID_17_" fill-rule="evenodd" clip-rule="evenodd" fill="#02A3D4" stroke="#FFFFFF" stroke-width="0.4819" stroke-miterlimit="10" points="
	71.5,131.8 101.6,149.8 101.6,149.7 131.7,131.8 116.6,122.8 101.6,113.9 101.5,113.9 86.5,122.8 71.5,131.8 "/>
<polygon id="XMLID_16_" fill-rule="evenodd" clip-rule="evenodd" fill="#343434" stroke="#FFFFFF" stroke-width="0.4819" stroke-miterlimit="10" points="
	101.6,149.8 71.5,131.8 71.5,149.7 71.5,167.7 71.5,167.7 86.5,176.7 101.6,185.6 101.6,185.6 101.6,149.8 "/>
<polygon id="XMLID_15_" fill-rule="evenodd" clip-rule="evenodd" fill="#686766" stroke="#FFFFFF" stroke-width="0.4819" stroke-miterlimit="10" points="
	101.6,149.8 101.6,185.6 116.6,176.7 131.7,167.7 131.7,167.7 131.7,149.7 131.7,131.8 101.6,149.7 "/>
<g id="XMLID_1_">
	
		<polygon id="XMLID_14_" fill-rule="evenodd" clip-rule="evenodd" fill="#F9ED74" stroke="#FFFFFF" stroke-width="0.4819" stroke-miterlimit="10" points="
		71.4,95.4 101.5,113.3 101.5,113.3 131.5,95.3 116.5,86.4 101.5,77.4 101.4,77.5 86.4,86.4 71.4,95.3 	"/>
	
		<polygon id="XMLID_13_" fill-rule="evenodd" clip-rule="evenodd" fill="#FAD800" stroke="#FFFFFF" stroke-width="0.4819" stroke-miterlimit="10" points="
		101.5,113.3 71.4,95.4 71.4,113.3 71.4,131.2 71.4,131.2 86.4,140.2 101.5,149.2 101.5,149.2 101.5,113.3 	"/>
	
		<polygon id="XMLID_12_" fill-rule="evenodd" clip-rule="evenodd" fill="#FBC022" stroke="#FFFFFF" stroke-width="0.4819" stroke-miterlimit="10" points="
		101.5,113.3 101.5,149.2 116.5,140.2 131.5,131.3 131.5,131.2 131.5,113.3 131.5,95.3 101.5,113.3 	"/>
</g>
<g id="XMLID_36_">
	
		<polygon id="XMLID_39_" fill-rule="evenodd" clip-rule="evenodd" fill="#838282" stroke="#FFFFFF" stroke-width="0.4819" stroke-miterlimit="10" points="
		120,49.5 138.4,60.4 138.4,60.4 156.8,49.5 147.6,44 138.4,38.5 138.4,38.5 129.2,44 120,49.5 	"/>
	
		<polygon id="XMLID_38_" fill-rule="evenodd" clip-rule="evenodd" fill="#B3B3B3" stroke="#FFFFFF" stroke-width="0.4819" stroke-miterlimit="10" points="
		138.4,60.4 120,49.5 120,60.4 120,71.4 120,71.4 129.2,76.9 138.4,82.3 138.4,82.3 138.4,60.4 	"/>
	
		<polygon id="XMLID_37_" fill-rule="evenodd" clip-rule="evenodd" fill="#191919" stroke="#FFFFFF" stroke-width="0.4819" stroke-miterlimit="10" points="
		138.4,60.4 138.4,82.3 147.6,76.9 156.8,71.4 156.8,71.4 156.8,60.4 156.8,49.5 138.4,60.4 	"/>
</g>
<g id="XMLID_32_">
	
		<polygon id="XMLID_35_" fill-rule="evenodd" clip-rule="evenodd" fill="#838282" stroke="#FFFFFF" stroke-width="0.4819" stroke-miterlimit="10" points="
		101.6,60.7 120,71.7 120,71.7 138.4,60.7 129.2,55.2 120,49.7 120,49.7 110.8,55.2 101.6,60.7 	"/>
	
		<polygon id="XMLID_34_" fill-rule="evenodd" clip-rule="evenodd" fill="#B3B3B3" stroke="#FFFFFF" stroke-width="0.4819" stroke-miterlimit="10" points="
		120,71.7 101.6,60.7 101.6,71.7 101.6,82.6 101.6,82.6 110.8,88.1 120,93.6 120,93.6 120,71.7 	"/>
	
		<polygon id="XMLID_33_" fill-rule="evenodd" clip-rule="evenodd" fill="#191919" stroke="#FFFFFF" stroke-width="0.4819" stroke-miterlimit="10" points="
		120,71.7 120,93.6 129.2,88.1 138.4,82.6 138.4,82.6 138.4,71.7 138.4,60.7 120,71.7 	"/>
</g>
<g id="XMLID_2_">
	
		<polygon id="XMLID_11_" fill-rule="evenodd" clip-rule="evenodd" fill="#838282" stroke="#FFFFFF" stroke-width="0.4819" stroke-miterlimit="10" points="
		24.6,36.5 43,47.4 43,47.4 61.4,36.4 52.2,31 43,25.5 43,25.5 33.8,31 24.6,36.4 	"/>
	
		<polygon id="XMLID_10_" fill-rule="evenodd" clip-rule="evenodd" fill="#B3B3B3" stroke="#FFFFFF" stroke-width="0.4819" stroke-miterlimit="10" points="
		43,47.4 24.6,36.5 24.6,47.4 24.6,58.3 24.6,58.4 33.8,63.8 43,69.3 43,69.3 43,47.4 	"/>
	
		<polygon id="XMLID_9_" fill-rule="evenodd" clip-rule="evenodd" fill="#191919" stroke="#FFFFFF" stroke-width="0.4819" stroke-miterlimit="10" points="
		43,47.4 43,69.3 52.2,63.8 61.4,58.4 61.4,58.4 61.4,47.4 61.4,36.4 43,47.4 	"/>
</g>
<g id="XMLID_24_">
	
		<polygon id="XMLID_5_" fill-rule="evenodd" clip-rule="evenodd" fill="#838282" stroke="#FFFFFF" stroke-width="0.4819" stroke-miterlimit="10" points="
		46,49.4 64.4,60.4 64.4,60.4 82.8,49.4 73.6,43.9 64.4,38.5 64.4,38.5 55.2,43.9 46,49.4 	"/>
	
		<polygon id="XMLID_4_" fill-rule="evenodd" clip-rule="evenodd" fill="#B3B3B3" stroke="#FFFFFF" stroke-width="0.4819" stroke-miterlimit="10" points="
		64.4,60.4 46,49.4 46,60.4 46,71.3 46,71.3 55.2,76.8 64.4,82.3 64.4,82.3 64.4,60.4 	"/>
	
		<polygon id="XMLID_3_" fill-rule="evenodd" clip-rule="evenodd" fill="#191919" stroke="#FFFFFF" stroke-width="0.4819" stroke-miterlimit="10" points="
		64.4,60.4 64.4,82.3 73.6,76.8 82.8,71.3 82.8,71.3 82.8,60.4 82.8,49.4 64.4,60.4 	"/>
</g>
<g id="XMLID_8_">
	
		<polygon id="XMLID_27_" fill-rule="evenodd" clip-rule="evenodd" fill="#838282" stroke="#FFFFFF" stroke-width="0.4819" stroke-miterlimit="10" points="
		64.7,60.4 83.1,71.4 83.1,71.4 101.5,60.4 92.3,54.9 83.1,49.5 83.1,49.5 73.9,54.9 64.7,60.4 	"/>
	
		<polygon id="XMLID_26_" fill-rule="evenodd" clip-rule="evenodd" fill="#B3B3B3" stroke="#FFFFFF" stroke-width="0.4819" stroke-miterlimit="10" points="
		83.1,71.4 64.7,60.4 64.7,71.4 64.7,82.4 64.7,82.4 73.9,87.9 83.1,93.3 83.1,93.3 83.1,71.4 	"/>
	
		<polygon id="XMLID_25_" fill-rule="evenodd" clip-rule="evenodd" fill="#191919" stroke="#FFFFFF" stroke-width="0.4819" stroke-miterlimit="10" points="
		83.1,71.4 83.1,93.3 92.3,87.9 101.5,82.4 101.5,82.4 101.5,71.4 101.5,60.4 83.1,71.4 	"/>
</g>
<g id="XMLID_28_">
	
		<polygon id="XMLID_31_" fill-rule="evenodd" clip-rule="evenodd" fill="#838282" stroke="#FFFFFF" stroke-width="0.4819" stroke-miterlimit="10" points="
		83.2,71.8 101.6,82.8 101.6,82.8 120,71.8 110.8,66.3 101.6,60.9 101.6,60.9 92.4,66.3 83.2,71.8 	"/>
	
		<polygon id="XMLID_30_" fill-rule="evenodd" clip-rule="evenodd" fill="#B3B3B3" stroke="#FFFFFF" stroke-width="0.4819" stroke-miterlimit="10" points="
		101.6,82.8 83.2,71.8 83.2,82.8 83.2,93.8 83.2,93.8 92.4,99.3 101.6,104.7 101.6,104.7 101.6,82.8 	"/>
	
		<polygon id="XMLID_29_" fill-rule="evenodd" clip-rule="evenodd" fill="#191919" stroke="#FFFFFF" stroke-width="0.4819" stroke-miterlimit="10" points="
		101.6,82.8 101.6,104.7 110.8,99.3 120,93.8 120,93.8 120,82.8 120,71.8 101.6,82.8 	"/>
</g>
</svg>
