<?xml version="1.0" encoding="utf-8"?>
<!-- Generator: Adobe Illustrator 19.0.0, SVG Export Plug-In . SVG Version: 6.00 Build 0)  -->
<svg version="1.2" baseProfile="tiny" id="Capa_1" xmlns="http://www.w3.org/2000/svg" xmlns:xlink="http://www.w3.org/1999/xlink"
	 x="0px" y="0px" viewBox="-12 13 200 200" xml:space="preserve">
<polygon id="XMLID_22_" fill="#DC2C1B" stroke="#FFFFFF" stroke-width="0.4819" stroke-miterlimit="10" points="119.6,121.9 
	89.5,104 89.5,121.9 89.5,139.8 89.5,139.8 104.6,148.8 119.6,157.8 119.7,157.7 "/>
<g id="XMLID_6_">
	<polygon id="XMLID_23_" fill="#676666" stroke="#FFFFFF" stroke-width="0.4819" stroke-miterlimit="10" points="89.6,139.7 
		119.7,157.6 119.7,157.6 149.8,139.7 134.7,130.7 119.7,121.7 119.6,121.7 104.6,130.7 	"/>
	<polygon id="XMLID_21_" fill="#4C4C4C" stroke="#FFFFFF" stroke-width="0.4819" stroke-miterlimit="10" points="119.7,157.6 
		119.7,193.5 134.7,184.5 149.8,175.6 149.8,175.6 149.8,157.6 149.8,139.7 	"/>
</g>
<g id="XMLID_7_">
	<polygon id="XMLID_20_" fill="#CCCCCB" stroke="#FFFFFF" stroke-width="0.4819" stroke-miterlimit="10" points="29.4,139.9 
		59.5,157.8 59.5,157.8 89.6,139.9 74.6,130.9 59.5,121.9 59.5,122 44.5,130.9 	"/>
	<polygon id="XMLID_19_" fill="#676666" stroke="#FFFFFF" stroke-width="0.4819" stroke-miterlimit="10" points="59.5,157.8 
		29.4,139.9 29.4,157.8 29.4,175.7 29.4,175.8 44.5,184.7 59.5,193.7 59.5,193.7 	"/>
</g>
<polygon id="XMLID_17_" fill="#676666" stroke="#FFFFFF" stroke-width="0.4819" stroke-miterlimit="10" points="59.5,157.8 
	89.6,175.8 89.6,175.7 119.7,157.8 104.6,148.8 89.6,139.9 89.5,139.9 74.5,148.8 "/>
<polygon id="XMLID_16_" fill="#343434" stroke="#FFFFFF" stroke-width="0.4819" stroke-miterlimit="10" points="89.6,175.8 
	59.5,157.8 59.5,175.7 59.5,193.7 59.5,193.7 74.5,202.7 89.6,211.6 89.6,211.6 "/>
<polygon id="XMLID_15_" fill="#686766" stroke="#FFFFFF" stroke-width="0.4819" stroke-miterlimit="10" points="89.6,175.8 
	89.6,211.6 104.6,202.7 119.7,193.7 119.7,193.7 119.7,175.7 119.7,157.8 89.6,175.7 "/>
<g id="XMLID_1_">
	<polygon id="XMLID_14_" fill="#F9ED74" stroke="#FFFFFF" stroke-width="0.4819" stroke-miterlimit="10" points="59.4,105.4 
		89.5,123.3 89.5,123.3 119.5,105.3 104.5,96.4 89.5,87.4 89.4,87.5 74.4,96.4 59.4,105.3 	"/>
	<polygon id="XMLID_13_" fill="#FAD800" stroke="#FFFFFF" stroke-width="0.4819" stroke-miterlimit="10" points="89.5,123.3 
		59.4,105.4 59.4,123.3 59.4,141.2 59.4,141.2 74.4,150.2 89.5,159.2 89.5,159.2 	"/>
	<polygon id="XMLID_12_" fill="#FBC022" stroke="#FFFFFF" stroke-width="0.4819" stroke-miterlimit="10" points="89.5,123.3 
		89.5,159.2 104.5,150.2 119.5,141.3 119.5,141.2 119.5,123.3 119.5,105.3 	"/>
</g>
<g id="XMLID_18_">
	<polygon id="XMLID_50_" fill="#F9ED74" stroke="#FFFFFF" stroke-width="0.4819" stroke-miterlimit="10" points="59.4,69.5 
		89.5,87.4 89.5,87.4 119.5,69.4 104.5,60.5 89.5,51.5 89.4,51.6 74.4,60.5 59.4,69.4 	"/>
	<polygon id="XMLID_49_" fill="#FAD800" stroke="#FFFFFF" stroke-width="0.4819" stroke-miterlimit="10" points="89.5,87.4 
		59.4,69.5 59.4,87.4 59.4,105.3 59.4,105.3 74.4,114.3 89.5,123.3 89.5,123.3 	"/>
	<polygon id="XMLID_48_" fill="#FBC022" stroke="#FFFFFF" stroke-width="0.4819" stroke-miterlimit="10" points="89.5,87.4 
		89.5,123.3 104.5,114.3 119.5,105.4 119.5,105.3 119.5,87.4 119.5,69.4 	"/>
</g>
<g id="XMLID_44_">
	<polygon id="XMLID_47_" fill="#838282" stroke="#FFFFFF" stroke-width="0.4819" stroke-miterlimit="10" points="70.9,26.5 
		89.3,37.4 89.3,37.4 107.7,26.5 98.5,21 89.3,15.5 89.3,15.5 80.1,21 	"/>
	<polygon id="XMLID_46_" fill="#B3B3B3" stroke="#FFFFFF" stroke-width="0.4819" stroke-miterlimit="10" points="89.3,37.4 
		70.9,26.5 70.9,37.4 70.9,48.4 70.9,48.4 80.1,53.9 89.3,59.4 89.3,59.4 	"/>
	<polygon id="XMLID_45_" fill="#191919" stroke="#FFFFFF" stroke-width="0.4819" stroke-miterlimit="10" points="89.3,37.4 
		89.3,59.4 98.5,53.9 107.7,48.4 107.7,48.4 107.7,37.4 107.7,26.5 	"/>
</g>
<g id="XMLID_40_">
	<polygon id="XMLID_43_" fill="#838282" stroke="#FFFFFF" stroke-width="0.4819" stroke-miterlimit="10" points="88.8,36.5 
		107.1,47.4 107.2,47.4 125.6,36.5 116.4,31 107.2,25.5 107.1,25.5 98,31 	"/>
	<polygon id="XMLID_42_" fill="#B3B3B3" stroke="#FFFFFF" stroke-width="0.4819" stroke-miterlimit="10" points="107.1,47.4 
		88.8,36.5 88.8,47.4 88.8,58.4 88.8,58.4 98,63.9 107.2,69.4 107.2,69.4 107.2,47.4 	"/>
	<polygon id="XMLID_41_" fill="#191919" stroke="#FFFFFF" stroke-width="0.4819" stroke-miterlimit="10" points="107.2,47.4 
		107.2,69.4 116.4,63.9 125.5,58.4 125.6,58.4 125.6,47.4 125.6,36.5 	"/>
</g>
<g id="XMLID_36_">
	<polygon id="XMLID_39_" fill="#838282" stroke="#FFFFFF" stroke-width="0.4819" stroke-miterlimit="10" points="108,47.5 
		126.4,58.4 126.4,58.4 144.8,47.5 135.6,42 126.4,36.5 126.4,36.5 117.2,42 	"/>
	<polygon id="XMLID_38_" fill="#B3B3B3" stroke="#FFFFFF" stroke-width="0.4819" stroke-miterlimit="10" points="126.4,58.4 
		108,47.5 108,58.4 108,69.4 108,69.4 117.2,74.9 126.4,80.3 126.4,80.3 	"/>
	<polygon id="XMLID_37_" fill="#191919" stroke="#FFFFFF" stroke-width="0.4819" stroke-miterlimit="10" points="126.4,58.4 
		126.4,80.3 135.6,74.9 144.8,69.4 144.8,69.4 144.8,58.4 144.8,47.5 	"/>
</g>
<g id="XMLID_32_">
	<polygon id="XMLID_35_" fill="#838282" stroke="#FFFFFF" stroke-width="0.4819" stroke-miterlimit="10" points="89.6,58.7 
		108,69.7 108,69.7 126.4,58.7 117.2,53.2 108,47.7 108,47.7 98.8,53.2 	"/>
	<polygon id="XMLID_34_" fill="#B3B3B3" stroke="#FFFFFF" stroke-width="0.4819" stroke-miterlimit="10" points="108,69.7 
		89.6,58.7 89.6,69.7 89.6,80.6 89.6,80.6 98.8,86.1 108,91.6 108,91.6 	"/>
	<polygon id="XMLID_33_" fill="#191919" stroke="#FFFFFF" stroke-width="0.4819" stroke-miterlimit="10" points="108,69.7 108,91.6 
		117.2,86.1 126.4,80.6 126.4,80.6 126.4,69.7 126.4,58.7 	"/>
</g>
<g id="XMLID_2_">
	<polygon id="XMLID_11_" fill="#838282" stroke="#FFFFFF" stroke-width="0.4819" stroke-miterlimit="10" points="52.7,36.5 
		71.1,47.4 71.1,47.4 89.5,36.4 80.3,31 71.1,25.5 71.1,25.5 61.9,31 52.7,36.4 	"/>
	<polygon id="XMLID_10_" fill="#B3B3B3" stroke="#FFFFFF" stroke-width="0.4819" stroke-miterlimit="10" points="71.1,47.4 
		52.7,36.5 52.7,47.4 52.7,58.4 52.7,58.4 61.9,63.9 71.1,69.4 71.2,69.4 	"/>
	<polygon id="XMLID_9_" fill="#191919" stroke="#FFFFFF" stroke-width="0.4819" stroke-miterlimit="10" points="71.1,47.4 
		71.2,69.4 80.3,63.9 89.5,58.4 89.5,58.4 89.5,47.4 89.5,36.4 	"/>
</g>
<g id="XMLID_24_">
	<polygon id="XMLID_5_" fill="#838282" stroke="#FFFFFF" stroke-width="0.4819" stroke-miterlimit="10" points="34,47.4 52.4,58.4 
		52.4,58.4 70.8,47.4 61.6,41.9 52.4,36.5 52.4,36.5 43.2,41.9 	"/>
	<polygon id="XMLID_4_" fill="#B3B3B3" stroke="#FFFFFF" stroke-width="0.4819" stroke-miterlimit="10" points="52.4,58.4 34,47.4 
		34,58.4 34,69.3 34,69.3 43.2,74.8 52.4,80.3 52.4,80.3 	"/>
	<polygon id="XMLID_3_" fill="#191919" stroke="#FFFFFF" stroke-width="0.4819" stroke-miterlimit="10" points="52.4,58.4 
		52.4,80.3 61.6,74.8 70.8,69.3 70.8,69.3 70.8,58.4 70.8,47.4 	"/>
</g>
<g id="XMLID_8_">
	<polygon id="XMLID_27_" fill="#838282" stroke="#FFFFFF" stroke-width="0.4819" stroke-miterlimit="10" points="52.7,58.4 
		71.1,69.4 71.1,69.4 89.5,58.4 80.3,52.9 71.1,47.5 71.1,47.5 61.9,52.9 	"/>
	<polygon id="XMLID_26_" fill="#B3B3B3" stroke="#FFFFFF" stroke-width="0.4819" stroke-miterlimit="10" points="71.1,69.4 
		52.7,58.4 52.7,69.4 52.7,80.4 52.7,80.4 61.9,85.9 71.1,91.3 71.1,91.3 	"/>
	<polygon id="XMLID_25_" fill="#191919" stroke="#FFFFFF" stroke-width="0.4819" stroke-miterlimit="10" points="71.1,69.4 
		71.1,91.3 80.3,85.9 89.5,80.4 89.5,80.4 89.5,69.4 89.5,58.4 	"/>
</g>
<g id="XMLID_28_">
	<polygon id="XMLID_31_" fill="#838282" stroke="#FFFFFF" stroke-width="0.4819" stroke-miterlimit="10" points="71.2,69.8 
		89.6,80.8 89.6,80.8 108,69.8 98.8,64.3 89.6,58.9 89.6,58.9 80.4,64.3 	"/>
	<polygon id="XMLID_30_" fill="#B3B3B3" stroke="#FFFFFF" stroke-width="0.4819" stroke-miterlimit="10" points="89.6,80.8 
		71.2,69.8 71.2,80.8 71.2,91.8 71.2,91.8 80.4,97.3 89.6,102.7 89.6,102.7 	"/>
	<polygon id="XMLID_29_" fill="#191919" stroke="#FFFFFF" stroke-width="0.4819" stroke-miterlimit="10" points="89.6,80.8 
		89.6,102.7 98.8,97.3 108,91.8 108,91.8 108,80.8 108,69.8 	"/>
</g>
</svg>
