<?xml version="1.0" encoding="utf-8"?>
<!-- Generator: Adobe Illustrator 19.0.0, SVG Export Plug-In . SVG Version: 6.00 Build 0)  -->
<svg version="1.2" baseProfile="tiny" id="Capa_1" xmlns="http://www.w3.org/2000/svg" xmlns:xlink="http://www.w3.org/1999/xlink"
	 x="0px" y="0px" viewBox="0 0 225 225" xml:space="preserve">
<g id="XMLID_79_">
	<polygon id="XMLID_82_" fill="#848383" stroke="#FFFFFF" stroke-width="0.4819" stroke-miterlimit="10" points="97.1,15.1 
		115.5,26.1 115.5,26.1 133.9,15.1 124.7,9.6 115.5,4.2 115.5,4.2 106.3,9.6 	"/>
	<polygon id="XMLID_81_" fill="#B4B4B4" stroke="#FFFFFF" stroke-width="0.4819" stroke-miterlimit="10" points="115.5,26.1 
		97.1,15.1 97.1,26.1 97.1,37.1 97.1,37.1 106.3,42.6 115.5,48 115.5,48 	"/>
	<polygon id="XMLID_80_" fill="#191919" stroke="#FFFFFF" stroke-width="0.4819" stroke-miterlimit="10" points="115.5,26.1 
		115.5,48 124.7,42.6 133.9,37.1 133.9,37.1 133.9,26.1 133.9,15.1 	"/>
</g>
<g id="XMLID_9_">
	<polygon id="XMLID_24_" fill="#848383" stroke="#FFFFFF" stroke-width="0.4819" stroke-miterlimit="10" points="79,25.4 97.4,36.4 
		97.4,36.4 115.8,25.4 106.6,19.9 97.4,14.5 97.4,14.5 88.2,19.9 	"/>
	<polygon id="XMLID_11_" fill="#B4B4B4" stroke="#FFFFFF" stroke-width="0.4819" stroke-miterlimit="10" points="97.4,36.4 79,25.4 
		79,36.4 79,47.4 79,47.4 88.2,52.9 97.4,58.3 97.4,58.3 	"/>
	<polygon id="XMLID_10_" fill="#191919" stroke="#FFFFFF" stroke-width="0.4819" stroke-miterlimit="10" points="97.4,36.4 
		97.4,58.3 106.6,52.9 115.8,47.4 115.8,47.4 115.8,36.4 115.8,25.4 	"/>
</g>
<g id="XMLID_40_">
	<polygon id="XMLID_43_" fill="#848383" stroke="#FFFFFF" stroke-width="0.4819" stroke-miterlimit="10" points="133.6,81.3 
		152,92.3 152,92.3 170.4,81.3 161.2,75.8 152,70.3 152,70.3 142.8,75.8 	"/>
	<polygon id="XMLID_42_" fill="#B4B4B4" stroke="#FFFFFF" stroke-width="0.4819" stroke-miterlimit="10" points="152,92.3 
		133.6,81.3 133.6,92.3 133.6,103.2 133.6,103.2 142.8,108.7 152,114.2 152,114.2 	"/>
	<polygon id="XMLID_41_" fill="#191919" stroke="#FFFFFF" stroke-width="0.4819" stroke-miterlimit="10" points="152,92.3 
		152,114.2 161.2,108.7 170.4,103.2 170.4,103.2 170.4,92.3 170.4,81.3 	"/>
</g>
<g id="XMLID_71_">
	<polygon id="XMLID_74_" fill="#848383" stroke="#FFFFFF" stroke-width="0.4819" stroke-miterlimit="10" points="133.5,59.3 
		151.9,70.3 151.9,70.3 170.3,59.3 161.1,53.8 151.9,48.4 151.9,48.4 142.7,53.8 	"/>
	<polygon id="XMLID_73_" fill="#B4B4B4" stroke="#FFFFFF" stroke-width="0.4819" stroke-miterlimit="10" points="151.9,70.3 
		133.5,59.3 133.5,70.3 133.5,81.3 133.5,81.3 142.7,86.8 151.9,92.2 151.9,92.2 	"/>
	<polygon id="XMLID_72_" fill="#191919" stroke="#FFFFFF" stroke-width="0.4819" stroke-miterlimit="10" points="151.9,70.3 
		151.9,92.2 161.1,86.8 170.3,81.3 170.3,81.3 170.3,70.3 170.3,59.3 	"/>
</g>
<g id="XMLID_67_">
	<polygon id="XMLID_70_" fill="#848383" stroke="#FFFFFF" stroke-width="0.4819" stroke-miterlimit="10" points="133.6,37.4 
		152,48.4 152,48.4 170.4,37.4 161.2,31.9 152,26.5 152,26.5 142.8,31.9 	"/>
	<polygon id="XMLID_69_" fill="#B4B4B4" stroke="#FFFFFF" stroke-width="0.4819" stroke-miterlimit="10" points="152,48.4 
		133.6,37.4 133.6,48.4 133.6,59.4 133.6,59.4 142.8,64.9 152,70.3 152,70.3 	"/>
	<polygon id="XMLID_68_" fill="#191919" stroke="#FFFFFF" stroke-width="0.4819" stroke-miterlimit="10" points="152,48.4 152,70.3 
		161.2,64.9 170.4,59.4 170.4,59.4 170.4,48.4 170.4,37.4 	"/>
</g>
<polygon id="XMLID_22_" fill="#DB2E1B" stroke="#FFFFFF" stroke-width="0.4819" stroke-miterlimit="10" points="126.8,138.7 
	96.7,120.8 96.7,138.7 96.7,156.6 96.7,156.6 111.8,165.6 126.8,174.6 126.9,174.5 "/>
<g id="XMLID_6_">
	<polygon id="XMLID_23_" fill="#686766" stroke="#FFFFFF" stroke-width="0.4819" stroke-miterlimit="10" points="103.8,151.5 
		133.9,169.4 133.9,169.4 164,151.5 148.9,142.5 133.9,133.5 133.8,133.5 118.8,142.5 	"/>
	<polygon id="XMLID_21_" fill="#4C4C4C" stroke="#FFFFFF" stroke-width="0.4819" stroke-miterlimit="10" points="133.9,169.4 
		133.9,205.3 148.9,196.3 164,187.4 164,187.4 164,169.4 164,151.5 	"/>
</g>
<g id="XMLID_7_">
	<polygon id="XMLID_20_" fill="#CCCCCB" stroke="#FFFFFF" stroke-width="0.4819" stroke-miterlimit="10" points="43.6,151.7 
		73.7,169.6 73.7,169.6 103.8,151.7 88.8,142.7 73.7,133.7 73.7,133.8 58.7,142.7 	"/>
	<polygon id="XMLID_19_" fill="#686766" stroke="#FFFFFF" stroke-width="0.4819" stroke-miterlimit="10" points="73.7,169.6 
		43.6,151.7 43.6,169.6 43.6,187.5 43.6,187.6 58.7,196.5 73.7,205.5 73.7,205.5 	"/>
</g>
<polygon id="XMLID_17_" fill="#686766" stroke="#FFFFFF" stroke-width="0.4819" stroke-miterlimit="10" points="73.7,169.6 
	103.8,187.6 103.8,187.5 133.9,169.6 118.8,160.6 103.8,151.7 103.7,151.7 88.7,160.6 "/>
<polygon id="XMLID_16_" fill="#353535" stroke="#FFFFFF" stroke-width="0.4819" stroke-miterlimit="10" points="103.8,187.6 
	73.7,169.6 73.7,187.5 73.7,205.5 73.7,205.5 88.7,214.5 103.8,223.4 103.8,223.4 "/>
<polygon id="XMLID_15_" fill="#696766" stroke="#FFFFFF" stroke-width="0.4819" stroke-miterlimit="10" points="103.8,187.6 
	103.8,223.4 118.8,214.5 133.9,205.5 133.9,205.5 133.9,187.5 133.9,169.6 103.8,187.5 "/>
<g id="XMLID_1_">
	<polygon id="XMLID_14_" fill="#F8ED76" stroke="#FFFFFF" stroke-width="0.4819" stroke-miterlimit="10" points="73.5,116.5 
		103.6,134.4 103.6,134.4 133.6,116.4 118.6,107.5 103.6,98.5 103.5,98.6 88.5,107.5 73.5,116.4 	"/>
	<polygon id="XMLID_13_" fill="#FBD903" stroke="#FFFFFF" stroke-width="0.4819" stroke-miterlimit="10" points="103.6,134.4 
		73.5,116.5 73.5,134.4 73.5,152.3 73.5,152.3 88.5,161.3 103.6,170.3 103.6,170.3 	"/>
	<polygon id="XMLID_12_" fill="#FBC025" stroke="#FFFFFF" stroke-width="0.4819" stroke-miterlimit="10" points="103.6,134.4 
		103.6,170.3 118.6,161.3 133.6,152.4 133.6,152.3 133.6,134.4 133.6,116.4 	"/>
</g>
<g id="XMLID_36_">
	<polygon id="XMLID_39_" fill="#848383" stroke="#FFFFFF" stroke-width="0.4819" stroke-miterlimit="10" points="115.2,92.3 
		133.6,103.2 133.6,103.2 152,92.3 142.8,86.8 133.6,81.3 133.6,81.3 124.4,86.8 	"/>
	<polygon id="XMLID_38_" fill="#B4B4B4" stroke="#FFFFFF" stroke-width="0.4819" stroke-miterlimit="10" points="133.6,103.2 
		115.2,92.3 115.2,103.2 115.2,114.2 115.2,114.2 124.4,119.7 133.6,125.1 133.6,125.1 	"/>
	<polygon id="XMLID_37_" fill="#191919" stroke="#FFFFFF" stroke-width="0.4819" stroke-miterlimit="10" points="133.6,103.2 
		133.6,125.1 142.8,119.7 152,114.2 152,114.2 152,103.2 152,92.3 	"/>
</g>
<g id="XMLID_32_">
	<polygon id="XMLID_35_" fill="#848383" stroke="#FFFFFF" stroke-width="0.4819" stroke-miterlimit="10" points="96.8,103.5 
		115.2,114.5 115.2,114.5 133.6,103.5 124.4,98 115.2,92.5 115.2,92.5 106,98 	"/>
	<polygon id="XMLID_34_" fill="#B4B4B4" stroke="#FFFFFF" stroke-width="0.4819" stroke-miterlimit="10" points="115.2,114.5 
		96.8,103.5 96.8,114.5 96.8,125.4 96.8,125.4 106,130.9 115.2,136.4 115.2,136.4 	"/>
	<polygon id="XMLID_33_" fill="#191919" stroke="#FFFFFF" stroke-width="0.4819" stroke-miterlimit="10" points="115.2,114.5 
		115.2,136.4 124.4,130.9 133.6,125.4 133.6,125.4 133.6,114.5 133.6,103.5 	"/>
</g>
<g id="XMLID_18_">
	<polygon id="XMLID_50_" fill="#F8ED76" stroke="#FFFFFF" stroke-width="0.4819" stroke-miterlimit="10" points="85,53 115.1,70.9 
		115.1,70.9 145.1,52.9 130.1,44 115.1,35 115,35.1 100,44 85,52.9 	"/>
	<polygon id="XMLID_49_" fill="#FBD903" stroke="#FFFFFF" stroke-width="0.4819" stroke-miterlimit="10" points="115.1,70.9 85,53 
		85,70.9 85,88.8 85,88.8 100,97.8 115.1,106.8 115.1,106.8 	"/>
	<polygon id="XMLID_48_" fill="#FBC025" stroke="#FFFFFF" stroke-width="0.4819" stroke-miterlimit="10" points="115.1,70.9 
		115.1,106.8 130.1,97.8 145.1,88.9 145.1,88.8 145.1,70.9 145.1,52.9 	"/>
</g>
<g id="XMLID_75_">
	<polygon id="XMLID_78_" fill="#848383" stroke="#FFFFFF" stroke-width="0.4819" stroke-miterlimit="10" points="133.6,15.5 
		152,26.5 152,26.5 170.4,15.5 161.2,10 152,4.6 152,4.6 142.8,10 	"/>
	<polygon id="XMLID_77_" fill="#B4B4B4" stroke="#FFFFFF" stroke-width="0.4819" stroke-miterlimit="10" points="152,26.5 
		133.6,15.5 133.6,26.5 133.6,37.5 133.6,37.5 142.8,43 152,48.4 152,48.4 	"/>
	<polygon id="XMLID_76_" fill="#191919" stroke="#FFFFFF" stroke-width="0.4819" stroke-miterlimit="10" points="152,26.5 152,48.4 
		161.2,43 170.4,37.5 170.4,37.5 170.4,26.5 170.4,15.5 	"/>
</g>
<g id="XMLID_63_">
	<polygon id="XMLID_66_" fill="#848383" stroke="#FFFFFF" stroke-width="0.4819" stroke-miterlimit="10" points="115.2,27.1 
		133.6,38.1 133.6,38.1 152,27.1 142.8,21.6 133.6,16.2 133.6,16.2 124.4,21.6 	"/>
	<polygon id="XMLID_65_" fill="#B4B4B4" stroke="#FFFFFF" stroke-width="0.4819" stroke-miterlimit="10" points="133.6,38.1 
		115.2,27.1 115.2,38.1 115.2,49.1 115.2,49.1 124.4,54.6 133.6,60 133.6,60 	"/>
	<polygon id="XMLID_64_" fill="#191919" stroke="#FFFFFF" stroke-width="0.4819" stroke-miterlimit="10" points="133.6,38.1 
		133.6,60 142.8,54.6 152,49.1 152,49.1 152,38.1 152,27.1 	"/>
</g>
<g id="XMLID_59_">
	<polygon id="XMLID_62_" fill="#848383" stroke="#FFFFFF" stroke-width="0.4819" stroke-miterlimit="10" points="97.1,37.4 
		115.5,48.4 115.5,48.4 133.9,37.4 124.7,31.9 115.5,26.5 115.5,26.5 106.3,31.9 	"/>
	<polygon id="XMLID_61_" fill="#B4B4B4" stroke="#FFFFFF" stroke-width="0.4819" stroke-miterlimit="10" points="115.5,48.4 
		97.1,37.4 97.1,48.4 97.1,59.4 97.1,59.4 106.3,64.9 115.5,70.3 115.5,70.3 	"/>
	<polygon id="XMLID_60_" fill="#191919" stroke="#FFFFFF" stroke-width="0.4819" stroke-miterlimit="10" points="115.5,48.4 
		115.5,70.3 124.7,64.9 133.9,59.4 133.9,59.4 133.9,48.4 133.9,37.4 	"/>
</g>
<g id="XMLID_8_">
	<polygon id="XMLID_27_" fill="#848383" stroke="#FFFFFF" stroke-width="0.4819" stroke-miterlimit="10" points="59.9,103.2 
		78.3,114.2 78.3,114.2 96.7,103.2 87.5,97.7 78.3,92.3 78.3,92.3 69.1,97.7 	"/>
	<polygon id="XMLID_26_" fill="#B4B4B4" stroke="#FFFFFF" stroke-width="0.4819" stroke-miterlimit="10" points="78.3,114.2 
		59.9,103.2 59.9,114.2 59.9,125.2 59.9,125.2 69.1,130.7 78.3,136.1 78.3,136.1 	"/>
	<polygon id="XMLID_25_" fill="#191919" stroke="#FFFFFF" stroke-width="0.4819" stroke-miterlimit="10" points="78.3,114.2 
		78.3,136.1 87.5,130.7 96.7,125.2 96.7,125.2 96.7,114.2 96.7,103.2 	"/>
</g>
<g id="XMLID_91_">
	<polygon id="XMLID_94_" fill="#848383" stroke="#FFFFFF" stroke-width="0.4819" stroke-miterlimit="10" points="60.2,80.7 
		78.6,91.7 78.6,91.7 97,80.7 87.8,75.2 78.6,69.8 78.6,69.8 69.4,75.2 	"/>
	<polygon id="XMLID_93_" fill="#B4B4B4" stroke="#FFFFFF" stroke-width="0.4819" stroke-miterlimit="10" points="78.6,91.7 
		60.2,80.7 60.2,91.7 60.2,102.7 60.2,102.7 69.4,108.2 78.6,113.6 78.6,113.6 	"/>
	<polygon id="XMLID_92_" fill="#191919" stroke="#FFFFFF" stroke-width="0.4819" stroke-miterlimit="10" points="78.6,91.7 
		78.6,113.6 87.8,108.2 97,102.7 97,102.7 97,91.7 97,80.7 	"/>
</g>
<g id="XMLID_87_">
	<polygon id="XMLID_90_" fill="#848383" stroke="#FFFFFF" stroke-width="0.4819" stroke-miterlimit="10" points="60.3,58.8 
		78.7,69.8 78.7,69.8 97.1,58.8 87.9,53.3 78.7,47.9 78.7,47.9 69.5,53.3 	"/>
	<polygon id="XMLID_89_" fill="#B4B4B4" stroke="#FFFFFF" stroke-width="0.4819" stroke-miterlimit="10" points="78.7,69.8 
		60.3,58.8 60.3,69.8 60.3,80.8 60.3,80.8 69.5,86.3 78.7,91.7 78.7,91.7 	"/>
	<polygon id="XMLID_88_" fill="#191919" stroke="#FFFFFF" stroke-width="0.4819" stroke-miterlimit="10" points="78.7,69.8 
		78.7,91.7 87.9,86.3 97.1,80.8 97.1,80.8 97.1,69.8 97.1,58.8 	"/>
</g>
<g id="XMLID_28_">
	<polygon id="XMLID_31_" fill="#848383" stroke="#FFFFFF" stroke-width="0.4819" stroke-miterlimit="10" points="78.4,114.6 
		96.8,125.6 96.8,125.6 115.2,114.6 106,109.1 96.8,103.7 96.8,103.7 87.6,109.1 	"/>
	<polygon id="XMLID_30_" fill="#B4B4B4" stroke="#FFFFFF" stroke-width="0.4819" stroke-miterlimit="10" points="96.8,125.6 
		78.4,114.6 78.4,125.6 78.4,136.6 78.4,136.6 87.6,142.1 96.8,147.5 96.8,147.5 	"/>
	<polygon id="XMLID_29_" fill="#191919" stroke="#FFFFFF" stroke-width="0.4819" stroke-miterlimit="10" points="96.8,125.6 
		96.8,147.5 106,142.1 115.2,136.6 115.2,136.6 115.2,125.6 115.2,114.6 	"/>
</g>
<g id="XMLID_44_">
	<polygon id="XMLID_47_" fill="#848383" stroke="#FFFFFF" stroke-width="0.4819" stroke-miterlimit="10" points="78.2,92.7 
		96.6,103.7 96.6,103.7 115,92.7 105.8,87.2 96.6,81.8 96.6,81.8 87.4,87.2 	"/>
	<polygon id="XMLID_46_" fill="#B4B4B4" stroke="#FFFFFF" stroke-width="0.4819" stroke-miterlimit="10" points="96.6,103.7 
		78.2,92.7 78.2,103.7 78.2,114.7 78.2,114.7 87.4,120.2 96.6,125.6 96.6,125.6 	"/>
	<polygon id="XMLID_45_" fill="#191919" stroke="#FFFFFF" stroke-width="0.4819" stroke-miterlimit="10" points="96.6,103.7 
		96.6,125.6 105.8,120.2 115,114.7 115,114.7 115,103.7 115,92.7 	"/>
</g>
<g id="XMLID_51_">
	<polygon id="XMLID_54_" fill="#848383" stroke="#FFFFFF" stroke-width="0.4819" stroke-miterlimit="10" points="78.4,70.8 
		96.8,81.8 96.8,81.8 115.2,70.8 106,65.3 96.8,59.9 96.8,59.9 87.6,65.3 	"/>
	<polygon id="XMLID_53_" fill="#B4B4B4" stroke="#FFFFFF" stroke-width="0.4819" stroke-miterlimit="10" points="96.8,81.8 
		78.4,70.8 78.4,81.8 78.4,92.8 78.4,92.8 87.6,98.3 96.8,103.7 96.8,103.7 	"/>
	<polygon id="XMLID_52_" fill="#191919" stroke="#FFFFFF" stroke-width="0.4819" stroke-miterlimit="10" points="96.8,81.8 
		96.8,103.7 106,98.3 115.2,92.8 115.2,92.8 115.2,81.8 115.2,70.8 	"/>
</g>
<g id="XMLID_55_">
	<polygon id="XMLID_58_" fill="#848383" stroke="#FFFFFF" stroke-width="0.4819" stroke-miterlimit="10" points="78.2,48.9 
		96.6,59.9 96.6,59.9 115,48.9 105.8,43.4 96.6,38 96.6,38 87.4,43.4 	"/>
	<polygon id="XMLID_57_" fill="#B4B4B4" stroke="#FFFFFF" stroke-width="0.4819" stroke-miterlimit="10" points="96.6,59.9 
		78.2,48.9 78.2,59.9 78.2,70.9 78.2,70.9 87.4,76.4 96.6,81.8 96.6,81.8 	"/>
	<polygon id="XMLID_56_" fill="#191919" stroke="#FFFFFF" stroke-width="0.4819" stroke-miterlimit="10" points="96.6,59.9 
		96.6,81.8 105.8,76.4 115,70.9 115,70.9 115,59.9 115,48.9 	"/>
</g>
</svg>
