<?xml version="1.0" encoding="utf-8"?>
<!-- Generator: Adobe Illustrator 19.0.0, SVG Export Plug-In . SVG Version: 6.00 Build 0)  -->
<svg version="1.1" id="Capa_1" xmlns="http://www.w3.org/2000/svg" xmlns:xlink="http://www.w3.org/1999/xlink" x="0px" y="0px"
	 viewBox="0 0 200 200" style="enable-background:new 0 0 200 200;" xml:space="preserve">
<style type="text/css">
	.st0{fill:#838282;stroke:#FFFFFF;stroke-width:0.4819;stroke-miterlimit:10;}
	.st1{fill:#B3B3B3;stroke:#FFFFFF;stroke-width:0.4819;stroke-miterlimit:10;}
	.st2{fill:#191919;stroke:#FFFFFF;stroke-width:0.4819;stroke-miterlimit:10;}
	.st3{fill:#676666;stroke:#FFFFFF;stroke-width:0.4819;stroke-miterlimit:10;}
	.st4{fill:#4C4C4C;stroke:#FFFFFF;stroke-width:0.4819;stroke-miterlimit:10;}
	.st5{fill:#CCCCCB;stroke:#FFFFFF;stroke-width:0.4819;stroke-miterlimit:10;}
	.st6{fill:#02A3D4;stroke:#FFFFFF;stroke-width:0.4819;stroke-miterlimit:10;}
	.st7{fill:#343434;stroke:#FFFFFF;stroke-width:0.4819;stroke-miterlimit:10;}
	.st8{fill:#686766;stroke:#FFFFFF;stroke-width:0.4819;stroke-miterlimit:10;}
	.st9{fill:#F9ED74;stroke:#FFFFFF;stroke-width:0.4819;stroke-miterlimit:10;}
	.st10{fill:#F8E830;stroke:#FFFFFF;stroke-width:0.4819;stroke-miterlimit:10;}
	.st11{fill:#FBC022;stroke:#FFFFFF;stroke-width:0.4819;stroke-miterlimit:10;}
	.st12{fill:#FAD800;stroke:#FFFFFF;stroke-width:0.4819;stroke-miterlimit:10;}
	.st13{fill:#F7AC1C;stroke:#FFFFFF;stroke-width:0.4819;stroke-miterlimit:10;}
</style>
<g id="XMLID_44_">
	<polygon id="XMLID_47_" class="st0" points="82.9,24.5 101.3,35.4 101.3,35.4 119.7,24.5 110.5,19 101.3,13.5 101.3,13.5 92.1,19 	
		"/>
	<polygon id="XMLID_46_" class="st1" points="101.3,35.4 82.9,24.5 82.9,35.4 82.9,46.4 82.9,46.4 92.1,51.9 101.3,57.4 101.3,57.4 
			"/>
	<polygon id="XMLID_45_" class="st2" points="101.3,35.4 101.3,57.4 110.5,51.9 119.7,46.4 119.7,46.4 119.7,35.4 119.7,24.5 	"/>
</g>
<g id="XMLID_40_">
	<polygon id="XMLID_43_" class="st0" points="100.8,34.5 119.1,45.4 119.2,45.4 137.6,34.5 128.4,29 119.2,23.5 119.1,23.5 110,29 	
		"/>
	<polygon id="XMLID_42_" class="st1" points="119.1,45.4 100.8,34.5 100.8,45.4 100.8,56.4 100.8,56.4 110,61.9 119.2,67.4 
		119.2,67.4 119.2,45.4 	"/>
	<polygon id="XMLID_41_" class="st2" points="119.2,45.4 119.2,67.4 128.4,61.9 137.5,56.4 137.6,56.4 137.6,45.4 137.6,34.5 	"/>
</g>
<g id="XMLID_36_">
	<polygon id="XMLID_39_" class="st0" points="120,45.5 138.4,56.4 138.4,56.4 156.8,45.5 147.6,40 138.4,34.5 138.4,34.5 129.2,40 	
		"/>
	<polygon id="XMLID_38_" class="st1" points="138.4,56.4 120,45.5 120,56.4 120,67.4 120,67.4 129.2,72.9 138.4,78.3 138.4,78.3 	
		"/>
	<polygon id="XMLID_37_" class="st2" points="138.4,56.4 138.4,78.3 147.6,72.9 156.8,67.4 156.8,67.4 156.8,56.4 156.8,45.5 	"/>
</g>
<g id="XMLID_2_">
	<polygon id="XMLID_11_" class="st0" points="64.7,34.5 83.1,45.4 83.1,45.4 101.5,34.4 92.3,29 83.1,23.5 83.1,23.5 73.9,29 
		64.7,34.4 	"/>
	<polygon id="XMLID_10_" class="st1" points="83.1,45.4 64.7,34.5 64.7,45.4 64.7,56.4 64.7,56.4 73.9,61.9 83.1,67.4 83.2,67.4 	
		"/>
	<polygon id="XMLID_9_" class="st2" points="83.1,45.4 83.2,67.4 92.3,61.9 101.5,56.4 101.5,56.4 101.5,45.4 101.5,34.4 	"/>
</g>
<g id="XMLID_24_">
	<polygon id="XMLID_5_" class="st0" points="46,45.4 64.4,56.4 64.4,56.4 82.8,45.4 73.6,39.9 64.4,34.5 64.4,34.5 55.2,39.9 	"/>
	<polygon id="XMLID_4_" class="st1" points="64.4,56.4 46,45.4 46,56.4 46,67.3 46,67.3 55.2,72.8 64.4,78.3 64.4,78.3 	"/>
	<polygon id="XMLID_3_" class="st2" points="64.4,56.4 64.4,78.3 73.6,72.8 82.8,67.3 82.8,67.3 82.8,56.4 82.8,45.4 	"/>
</g>
<g id="XMLID_6_">
	<polygon id="XMLID_23_" class="st3" points="101.6,113.7 131.7,131.6 131.7,131.6 161.8,113.7 146.7,104.7 131.7,95.7 131.6,95.7 
		116.6,104.7 	"/>
	<polygon id="XMLID_21_" class="st4" points="131.7,131.6 131.7,167.5 146.7,158.5 161.8,149.6 161.8,149.6 161.8,131.6 
		161.8,113.7 	"/>
</g>
<g id="XMLID_7_">
	<polygon id="XMLID_20_" class="st5" points="41.4,113.9 71.5,131.8 71.5,131.8 101.6,113.9 86.6,104.9 71.5,95.9 71.5,96 
		56.5,104.9 	"/>
	<polygon id="XMLID_19_" class="st3" points="71.5,131.8 41.4,113.9 41.4,131.8 41.4,149.7 41.4,149.8 56.5,158.7 71.5,167.7 
		71.5,167.7 	"/>
</g>
<polygon id="XMLID_17_" class="st6" points="71.5,131.8 101.6,149.8 101.6,149.7 131.7,131.8 116.6,122.8 101.6,113.9 101.5,113.9 
	86.5,122.8 "/>
<polygon id="XMLID_16_" class="st7" points="101.6,149.8 71.5,131.8 71.5,149.7 71.5,167.7 71.5,167.7 86.5,176.7 101.6,185.6 
	101.6,185.6 "/>
<polygon id="XMLID_15_" class="st8" points="101.6,149.8 101.6,185.6 116.6,176.7 131.7,167.7 131.7,167.7 131.7,149.7 131.7,131.8 
	101.6,149.7 "/>
<g>
	<polygon id="XMLID_27_" class="st9" points="40.7,113.3 70.8,131.2 70.8,131.2 100.8,113.2 85.8,104.3 70.8,95.3 70.7,95.4 
		55.7,104.3 40.7,113.2 	"/>
	<polygon id="XMLID_26_" class="st10" points="70.8,131.2 40.7,113.3 40.7,131.2 40.7,149.1 40.7,149.1 55.7,158.1 70.8,167.1 
		70.8,167.1 	"/>
	<polygon id="XMLID_25_" class="st11" points="70.8,131.2 70.8,167.1 85.8,158.1 100.8,149.2 100.8,149.1 100.8,131.2 100.8,113.2 	
		"/>
</g>
<g>
	<polygon id="XMLID_31_" class="st9" points="101.6,113.3 131.7,131.2 131.7,131.2 161.7,113.2 146.7,104.3 131.7,95.3 131.6,95.4 
		116.6,104.3 101.6,113.2 	"/>
	<polygon id="XMLID_30_" class="st12" points="131.7,131.2 101.6,113.3 101.6,131.2 101.6,149.1 101.6,149.1 116.6,158.1 
		131.7,167.1 131.7,167.1 	"/>
	<polygon id="XMLID_29_" class="st13" points="131.7,131.2 131.7,167.1 146.7,158.1 161.7,149.2 161.7,149.1 161.7,131.2 
		161.7,113.2 	"/>
</g>
<g>
	<polygon id="XMLID_14_" class="st9" points="70.8,143.3 100.9,161.2 100.9,161.2 130.9,143.2 115.9,134.3 100.9,125.3 100.8,125.4 
		85.8,134.3 70.8,143.2 	"/>
	<polygon id="XMLID_13_" class="st12" points="100.9,161.2 70.8,143.3 70.8,161.2 70.8,179.1 70.8,179.1 85.8,188.1 100.9,197.1 
		100.9,197.1 	"/>
	<polygon id="XMLID_12_" class="st11" points="100.9,161.2 100.9,197.1 115.9,188.1 130.9,179.2 130.9,179.1 130.9,161.2 
		130.9,143.2 	"/>
</g>
<g id="XMLID_1_">
	<polygon id="XMLID_22_" class="st0" points="82.9,52 101.3,62.9 101.3,62.9 119.7,52 110.5,46.5 101.3,41 101.3,41 92.1,46.5 	"/>
	<polygon id="XMLID_18_" class="st1" points="101.3,62.9 82.9,52 82.9,62.9 82.9,73.8 82.9,73.8 92.1,79.3 101.3,84.8 101.3,84.8 	
		"/>
	<polygon id="XMLID_8_" class="st2" points="101.3,62.9 101.3,84.8 110.5,79.3 119.7,73.8 119.7,73.8 119.7,62.9 119.7,52 	"/>
</g>
<g id="XMLID_28_">
	<polygon id="XMLID_34_" class="st0" points="83.1,73.8 101.5,84.8 101.5,84.8 119.9,73.8 110.7,68.3 101.5,62.9 101.5,62.9 
		92.3,68.3 	"/>
	<polygon id="XMLID_33_" class="st1" points="101.5,84.8 83.1,73.8 83.1,84.8 83.1,95.8 83.1,95.8 92.3,101.3 101.5,106.7 
		101.5,106.7 	"/>
	<polygon id="XMLID_32_" class="st2" points="101.5,84.8 101.5,106.7 110.7,101.3 119.9,95.8 119.9,95.8 119.9,84.8 119.9,73.8 	"/>
</g>
</svg>
