<?xml version="1.0" encoding="utf-8"?>
<!-- Generator: Adobe Illustrator 19.0.0, SVG Export Plug-In . SVG Version: 6.00 Build 0)  -->
<svg version="1.1" id="Capa_1" xmlns="http://www.w3.org/2000/svg" xmlns:xlink="http://www.w3.org/1999/xlink" x="0px" y="0px"
	 viewBox="0 0 200 200" enable-background="new 0 0 200 200" xml:space="preserve">
<polygon id="XMLID_23_" fill-rule="evenodd" clip-rule="evenodd" fill="#676666" stroke="#FFFFFF" stroke-width="0.4819" stroke-miterlimit="10" points="
	101.5,78 131.6,95.9 131.6,95.8 161.7,77.9 146.7,69 131.6,60 131.6,60 116.6,69 101.5,77.9 "/>
<polygon id="XMLID_22_" fill-rule="evenodd" clip-rule="evenodd" fill="#DC2C1B" stroke="#FFFFFF" stroke-width="0.4819" stroke-miterlimit="10" points="
	131.6,95.9 101.5,78 101.5,95.9 101.5,113.8 101.5,113.8 116.6,122.8 131.6,131.8 131.7,131.7 131.6,95.9 "/>
<polygon id="XMLID_21_" fill-rule="evenodd" clip-rule="evenodd" fill="#4C4C4C" stroke="#FFFFFF" stroke-width="0.4819" stroke-miterlimit="10" points="
	131.6,95.9 131.7,131.7 146.7,122.8 161.7,113.8 161.7,113.8 161.7,95.9 161.7,77.9 131.6,95.8 "/>
<polygon id="XMLID_20_" fill-rule="evenodd" clip-rule="evenodd" fill="#CCCCCB" stroke="#FFFFFF" stroke-width="0.4819" stroke-miterlimit="10" points="
	41.4,77.8 71.5,95.8 71.5,95.8 101.6,77.8 86.6,68.9 71.5,59.9 71.5,59.9 56.5,68.9 41.4,77.8 "/>
<polygon id="XMLID_19_" fill-rule="evenodd" clip-rule="evenodd" fill="#676666" stroke="#FFFFFF" stroke-width="0.4819" stroke-miterlimit="10" points="
	71.5,95.8 41.4,77.8 41.4,95.8 41.4,113.7 41.4,113.7 56.5,122.7 71.5,131.7 71.5,131.6 71.5,95.8 "/>
<polygon id="XMLID_18_" fill-rule="evenodd" clip-rule="evenodd" fill="#BACD1F" stroke="#FFFFFF" stroke-width="0.4819" stroke-miterlimit="10" points="
	71.5,95.8 71.5,131.6 86.6,122.7 101.6,113.7 101.6,113.7 101.6,95.8 101.6,77.8 71.5,95.8 "/>
<polygon id="XMLID_17_" fill-rule="evenodd" clip-rule="evenodd" fill="#02A3D4" stroke="#FFFFFF" stroke-width="0.4819" stroke-miterlimit="10" points="
	71.5,131.8 101.6,149.8 101.6,149.7 131.7,131.8 116.6,122.8 101.6,113.9 101.5,113.9 86.5,122.8 71.5,131.8 "/>
<polygon id="XMLID_16_" fill-rule="evenodd" clip-rule="evenodd" fill="#343434" stroke="#FFFFFF" stroke-width="0.4819" stroke-miterlimit="10" points="
	101.6,149.8 71.5,131.8 71.5,149.7 71.5,167.7 71.5,167.7 86.5,176.7 101.6,185.6 101.6,185.6 101.6,149.8 "/>
<polygon id="XMLID_15_" fill-rule="evenodd" clip-rule="evenodd" fill="#686766" stroke="#FFFFFF" stroke-width="0.4819" stroke-miterlimit="10" points="
	101.6,149.8 101.6,185.6 116.6,176.7 131.7,167.7 131.7,167.7 131.7,149.7 131.7,131.8 101.6,149.7 "/>
<g id="XMLID_1_">
	
		<polygon id="XMLID_14_" fill-rule="evenodd" clip-rule="evenodd" fill="#F9ED74" stroke="#FFFFFF" stroke-width="0.4819" stroke-miterlimit="10" points="
		71.4,95.4 101.5,113.3 101.5,113.3 131.5,95.3 116.5,86.4 101.5,77.4 101.4,77.5 86.4,86.4 71.4,95.3 	"/>
	
		<polygon id="XMLID_13_" fill-rule="evenodd" clip-rule="evenodd" fill="#FAD800" stroke="#FFFFFF" stroke-width="0.4819" stroke-miterlimit="10" points="
		101.5,113.3 71.4,95.4 71.4,113.3 71.4,131.2 71.4,131.2 86.4,140.2 101.5,149.2 101.5,149.2 101.5,113.3 	"/>
	
		<polygon id="XMLID_12_" fill-rule="evenodd" clip-rule="evenodd" fill="#FBC022" stroke="#FFFFFF" stroke-width="0.4819" stroke-miterlimit="10" points="
		101.5,113.3 101.5,149.2 116.5,140.2 131.5,131.3 131.5,131.2 131.5,113.3 131.5,95.3 101.5,113.3 	"/>
</g>
<g id="XMLID_2_">
	
		<polygon id="XMLID_11_" fill-rule="evenodd" clip-rule="evenodd" fill="#838282" stroke="#FFFFFF" stroke-width="0.4819" stroke-miterlimit="10" points="
		40.3,50.2 58.7,61.1 58.7,61.1 77.1,50.1 67.9,44.7 58.7,39.2 58.7,39.2 49.5,44.7 40.3,50.1 	"/>
	
		<polygon id="XMLID_10_" fill-rule="evenodd" clip-rule="evenodd" fill="#B3B3B3" stroke="#FFFFFF" stroke-width="0.4819" stroke-miterlimit="10" points="
		58.7,61.1 40.3,50.2 40.3,61.1 40.3,72 40.3,72.1 49.5,77.5 58.7,83 58.7,83 58.7,61.1 	"/>
	
		<polygon id="XMLID_9_" fill-rule="evenodd" clip-rule="evenodd" fill="#191919" stroke="#FFFFFF" stroke-width="0.4819" stroke-miterlimit="10" points="
		58.7,61.1 58.7,83 67.9,77.5 77.1,72.1 77.1,72.1 77.1,61.1 77.1,50.1 58.7,61.1 	"/>
</g>
<g id="XMLID_24_">
	
		<polygon id="XMLID_5_" fill-rule="evenodd" clip-rule="evenodd" fill="#838282" stroke="#FFFFFF" stroke-width="0.4819" stroke-miterlimit="10" points="
		124.1,49 142.5,60 142.5,60 160.9,49 151.7,43.5 142.5,38.1 142.5,38.1 133.3,43.5 124.1,49 	"/>
	
		<polygon id="XMLID_4_" fill-rule="evenodd" clip-rule="evenodd" fill="#B3B3B3" stroke="#FFFFFF" stroke-width="0.4819" stroke-miterlimit="10" points="
		142.5,60 124.1,49 124.1,60 124.1,71 124.1,71 133.3,76.5 142.5,81.9 142.5,81.9 142.5,60 	"/>
	
		<polygon id="XMLID_3_" fill-rule="evenodd" clip-rule="evenodd" fill="#191919" stroke="#FFFFFF" stroke-width="0.4819" stroke-miterlimit="10" points="
		142.5,60 142.5,81.9 151.7,76.5 160.9,71 160.9,71 160.9,60 160.9,49 142.5,60 	"/>
</g>
</svg>
