<?xml version="1.0" encoding="utf-8"?>
<!-- Generator: Adobe Illustrator 19.0.0, SVG Export Plug-In . SVG Version: 6.00 Build 0)  -->
<svg version="1.1" id="Capa_1" xmlns="http://www.w3.org/2000/svg" xmlns:xlink="http://www.w3.org/1999/xlink" x="0px" y="0px"
	 viewBox="0 0 200 200" enable-background="new 0 0 200 200" xml:space="preserve">
<g id="XMLID_8_">
	
		<polygon id="XMLID_27_" fill-rule="evenodd" clip-rule="evenodd" fill="#838282" stroke="#FFFFFF" stroke-width="0.4819" stroke-miterlimit="10" points="
		23,116.9 41.4,127.8 41.4,127.8 59.8,116.9 50.6,111.4 41.4,105.9 41.4,105.9 32.2,111.4 23,116.9 	"/>
	
		<polygon id="XMLID_26_" fill-rule="evenodd" clip-rule="evenodd" fill="#B3B3B3" stroke="#FFFFFF" stroke-width="0.4819" stroke-miterlimit="10" points="
		41.4,127.8 23,116.9 23,127.8 23,138.8 23,138.8 32.2,144.3 41.4,149.8 41.4,149.8 41.4,127.8 	"/>
	
		<polygon id="XMLID_25_" fill-rule="evenodd" clip-rule="evenodd" fill="#191919" stroke="#FFFFFF" stroke-width="0.4819" stroke-miterlimit="10" points="
		41.4,127.8 41.4,149.8 50.6,144.3 59.8,138.8 59.8,138.8 59.8,127.8 59.8,116.9 41.4,127.8 	"/>
</g>
<g id="XMLID_32_">
	
		<polygon id="XMLID_35_" fill-rule="evenodd" clip-rule="evenodd" fill="#838282" stroke="#FFFFFF" stroke-width="0.4819" stroke-miterlimit="10" points="
		143.4,116.9 161.7,127.8 161.8,127.8 180.2,116.9 171,111.4 161.8,105.9 161.7,105.9 152.6,111.4 143.4,116.9 	"/>
	
		<polygon id="XMLID_34_" fill-rule="evenodd" clip-rule="evenodd" fill="#B3B3B3" stroke="#FFFFFF" stroke-width="0.4819" stroke-miterlimit="10" points="
		161.7,127.8 143.4,116.9 143.4,127.8 143.4,138.8 143.4,138.8 152.6,144.3 161.8,149.8 161.8,149.8 161.8,127.8 	"/>
	
		<polygon id="XMLID_33_" fill-rule="evenodd" clip-rule="evenodd" fill="#191919" stroke="#FFFFFF" stroke-width="0.4819" stroke-miterlimit="10" points="
		161.8,127.8 161.8,149.8 171,144.3 180.1,138.8 180.2,138.8 180.2,127.8 180.2,116.9 161.8,127.8 	"/>
</g>
<g id="XMLID_44_">
	
		<polygon id="XMLID_47_" fill-rule="evenodd" clip-rule="evenodd" fill="#838282" stroke="#FFFFFF" stroke-width="0.4819" stroke-miterlimit="10" points="
		82.9,28.5 101.3,39.4 101.3,39.4 119.7,28.5 110.5,23 101.3,17.5 101.3,17.5 92.1,23 82.9,28.5 	"/>
	
		<polygon id="XMLID_46_" fill-rule="evenodd" clip-rule="evenodd" fill="#B3B3B3" stroke="#FFFFFF" stroke-width="0.4819" stroke-miterlimit="10" points="
		101.3,39.4 82.9,28.5 82.9,39.4 82.9,50.4 82.9,50.4 92.1,55.9 101.3,61.4 101.3,61.4 101.3,39.4 	"/>
	
		<polygon id="XMLID_45_" fill-rule="evenodd" clip-rule="evenodd" fill="#191919" stroke="#FFFFFF" stroke-width="0.4819" stroke-miterlimit="10" points="
		101.3,39.4 101.3,61.4 110.5,55.9 119.7,50.4 119.7,50.4 119.7,39.4 119.7,28.5 101.3,39.4 	"/>
</g>
<g id="XMLID_40_">
	
		<polygon id="XMLID_43_" fill-rule="evenodd" clip-rule="evenodd" fill="#838282" stroke="#FFFFFF" stroke-width="0.4819" stroke-miterlimit="10" points="
		100.8,38.5 119.1,49.4 119.2,49.4 137.6,38.5 128.4,33 119.2,27.5 119.1,27.5 110,33 100.8,38.5 	"/>
	
		<polygon id="XMLID_42_" fill-rule="evenodd" clip-rule="evenodd" fill="#B3B3B3" stroke="#FFFFFF" stroke-width="0.4819" stroke-miterlimit="10" points="
		119.1,49.4 100.8,38.5 100.8,49.4 100.8,60.4 100.8,60.4 110,65.9 119.2,71.4 119.2,71.4 119.2,49.4 	"/>
	
		<polygon id="XMLID_41_" fill-rule="evenodd" clip-rule="evenodd" fill="#191919" stroke="#FFFFFF" stroke-width="0.4819" stroke-miterlimit="10" points="
		119.2,49.4 119.2,71.4 128.4,65.9 137.5,60.4 137.6,60.4 137.6,49.4 137.6,38.5 119.2,49.4 	"/>
</g>
<polygon id="XMLID_22_" fill-rule="evenodd" clip-rule="evenodd" fill="#DC2C1B" stroke="#FFFFFF" stroke-width="0.4819" stroke-miterlimit="10" points="
	131.6,95.9 101.5,78 101.5,95.9 101.5,113.8 101.5,113.8 116.6,122.8 131.6,131.8 131.7,131.7 131.6,95.9 "/>
<g id="XMLID_6_">
	
		<polygon id="XMLID_23_" fill-rule="evenodd" clip-rule="evenodd" fill="#676666" stroke="#FFFFFF" stroke-width="0.4819" stroke-miterlimit="10" points="
		101.6,113.7 131.7,131.6 131.7,131.6 161.8,113.7 146.7,104.7 131.7,95.7 131.6,95.7 116.6,104.7 101.6,113.7 	"/>
	
		<polygon id="XMLID_21_" fill-rule="evenodd" clip-rule="evenodd" fill="#4C4C4C" stroke="#FFFFFF" stroke-width="0.4819" stroke-miterlimit="10" points="
		131.7,131.6 131.7,167.5 146.7,158.5 161.8,149.6 161.8,149.6 161.8,131.6 161.8,113.7 131.7,131.6 	"/>
</g>
<g id="XMLID_7_">
	
		<polygon id="XMLID_20_" fill-rule="evenodd" clip-rule="evenodd" fill="#CCCCCB" stroke="#FFFFFF" stroke-width="0.4819" stroke-miterlimit="10" points="
		41.4,113.9 71.5,131.8 71.5,131.8 101.6,113.9 86.6,104.9 71.5,95.9 71.5,96 56.5,104.9 41.4,113.9 	"/>
	
		<polygon id="XMLID_19_" fill-rule="evenodd" clip-rule="evenodd" fill="#676666" stroke="#FFFFFF" stroke-width="0.4819" stroke-miterlimit="10" points="
		71.5,131.8 41.4,113.9 41.4,131.8 41.4,149.7 41.4,149.8 56.5,158.7 71.5,167.7 71.5,167.7 71.5,131.8 	"/>
</g>
<polygon id="XMLID_18_" fill-rule="evenodd" clip-rule="evenodd" fill="#BACD1F" stroke="#FFFFFF" stroke-width="0.4819" stroke-miterlimit="10" points="
	71.5,95.8 71.5,131.6 86.6,122.7 101.6,113.7 101.6,113.7 101.6,95.8 101.6,77.8 71.5,95.8 "/>
<polygon id="XMLID_17_" fill-rule="evenodd" clip-rule="evenodd" fill="#02A3D4" stroke="#FFFFFF" stroke-width="0.4819" stroke-miterlimit="10" points="
	71.5,131.8 101.6,149.8 101.6,149.7 131.7,131.8 116.6,122.8 101.6,113.9 101.5,113.9 86.5,122.8 71.5,131.8 "/>
<polygon id="XMLID_16_" fill-rule="evenodd" clip-rule="evenodd" fill="#343434" stroke="#FFFFFF" stroke-width="0.4819" stroke-miterlimit="10" points="
	101.6,149.8 71.5,131.8 71.5,149.7 71.5,167.7 71.5,167.7 86.5,176.7 101.6,185.6 101.6,185.6 101.6,149.8 "/>
<polygon id="XMLID_15_" fill-rule="evenodd" clip-rule="evenodd" fill="#686766" stroke="#FFFFFF" stroke-width="0.4819" stroke-miterlimit="10" points="
	101.6,149.8 101.6,185.6 116.6,176.7 131.7,167.7 131.7,167.7 131.7,149.7 131.7,131.8 101.6,149.7 "/>
<g id="XMLID_1_">
	
		<polygon id="XMLID_14_" fill-rule="evenodd" clip-rule="evenodd" fill="#F9ED74" stroke="#FFFFFF" stroke-width="0.4819" stroke-miterlimit="10" points="
		71.4,95.4 101.5,113.3 101.5,113.3 131.5,95.3 116.5,86.4 101.5,77.4 101.4,77.5 86.4,86.4 71.4,95.3 	"/>
	
		<polygon id="XMLID_13_" fill-rule="evenodd" clip-rule="evenodd" fill="#FAD800" stroke="#FFFFFF" stroke-width="0.4819" stroke-miterlimit="10" points="
		101.5,113.3 71.4,95.4 71.4,113.3 71.4,131.2 71.4,131.2 86.4,140.2 101.5,149.2 101.5,149.2 101.5,113.3 	"/>
	
		<polygon id="XMLID_12_" fill-rule="evenodd" clip-rule="evenodd" fill="#FBC022" stroke="#FFFFFF" stroke-width="0.4819" stroke-miterlimit="10" points="
		101.5,113.3 101.5,149.2 116.5,140.2 131.5,131.3 131.5,131.2 131.5,113.3 131.5,95.3 101.5,113.3 	"/>
</g>
<g id="XMLID_36_">
	
		<polygon id="XMLID_39_" fill-rule="evenodd" clip-rule="evenodd" fill="#838282" stroke="#FFFFFF" stroke-width="0.4819" stroke-miterlimit="10" points="
		120,49.5 138.4,60.4 138.4,60.4 156.8,49.5 147.6,44 138.4,38.5 138.4,38.5 129.2,44 120,49.5 	"/>
	
		<polygon id="XMLID_38_" fill-rule="evenodd" clip-rule="evenodd" fill="#B3B3B3" stroke="#FFFFFF" stroke-width="0.4819" stroke-miterlimit="10" points="
		138.4,60.4 120,49.5 120,60.4 120,71.4 120,71.4 129.2,76.9 138.4,82.3 138.4,82.3 138.4,60.4 	"/>
	
		<polygon id="XMLID_37_" fill-rule="evenodd" clip-rule="evenodd" fill="#191919" stroke="#FFFFFF" stroke-width="0.4819" stroke-miterlimit="10" points="
		138.4,60.4 138.4,82.3 147.6,76.9 156.8,71.4 156.8,71.4 156.8,60.4 156.8,49.5 138.4,60.4 	"/>
</g>
<g id="XMLID_2_">
	
		<polygon id="XMLID_11_" fill-rule="evenodd" clip-rule="evenodd" fill="#838282" stroke="#FFFFFF" stroke-width="0.4819" stroke-miterlimit="10" points="
		64.7,38.5 83.1,49.4 83.1,49.4 101.5,38.4 92.3,33 83.1,27.5 83.1,27.5 73.9,33 64.7,38.4 	"/>
	
		<polygon id="XMLID_10_" fill-rule="evenodd" clip-rule="evenodd" fill="#B3B3B3" stroke="#FFFFFF" stroke-width="0.4819" stroke-miterlimit="10" points="
		83.1,49.4 64.7,38.5 64.7,49.4 64.7,60.4 64.7,60.4 73.9,65.9 83.1,71.4 83.2,71.4 83.1,49.4 	"/>
	
		<polygon id="XMLID_9_" fill-rule="evenodd" clip-rule="evenodd" fill="#191919" stroke="#FFFFFF" stroke-width="0.4819" stroke-miterlimit="10" points="
		83.1,49.4 83.2,71.4 92.3,65.9 101.5,60.4 101.5,60.4 101.5,49.4 101.5,38.4 83.1,49.4 	"/>
</g>
<g id="XMLID_24_">
	
		<polygon id="XMLID_5_" fill-rule="evenodd" clip-rule="evenodd" fill="#838282" stroke="#FFFFFF" stroke-width="0.4819" stroke-miterlimit="10" points="
		46,49.4 64.4,60.4 64.4,60.4 82.8,49.4 73.6,43.9 64.4,38.5 64.4,38.5 55.2,43.9 46,49.4 	"/>
	
		<polygon id="XMLID_4_" fill-rule="evenodd" clip-rule="evenodd" fill="#B3B3B3" stroke="#FFFFFF" stroke-width="0.4819" stroke-miterlimit="10" points="
		64.4,60.4 46,49.4 46,60.4 46,71.3 46,71.3 55.2,76.8 64.4,82.3 64.4,82.3 64.4,60.4 	"/>
	
		<polygon id="XMLID_3_" fill-rule="evenodd" clip-rule="evenodd" fill="#191919" stroke="#FFFFFF" stroke-width="0.4819" stroke-miterlimit="10" points="
		64.4,60.4 64.4,82.3 73.6,76.8 82.8,71.3 82.8,71.3 82.8,60.4 82.8,49.4 64.4,60.4 	"/>
</g>
<g id="XMLID_28_">
	
		<polygon id="XMLID_31_" fill-rule="evenodd" clip-rule="evenodd" fill="#838282" stroke="#FFFFFF" stroke-width="0.4819" stroke-miterlimit="10" points="
		82.8,73 101.2,84 101.2,84 119.6,73 110.4,67.5 101.2,62.1 101.2,62.1 92,67.5 82.8,73 	"/>
	
		<polygon id="XMLID_30_" fill-rule="evenodd" clip-rule="evenodd" fill="#B3B3B3" stroke="#FFFFFF" stroke-width="0.4819" stroke-miterlimit="10" points="
		101.2,84 82.8,73 82.8,84 82.8,95 82.8,95 92,100.5 101.2,105.9 101.2,105.9 101.2,84 	"/>
	
		<polygon id="XMLID_29_" fill-rule="evenodd" clip-rule="evenodd" fill="#191919" stroke="#FFFFFF" stroke-width="0.4819" stroke-miterlimit="10" points="
		101.2,84 101.2,105.9 110.4,100.5 119.6,95 119.6,95 119.6,84 119.6,73 101.2,84 	"/>
</g>
</svg>
