<?xml version="1.0" encoding="utf-8"?>
<!-- Generator: Adobe Illustrator 19.0.0, SVG Export Plug-In . SVG Version: 6.00 Build 0)  -->
<svg version="1.2" baseProfile="tiny" id="Capa_1" xmlns="http://www.w3.org/2000/svg" xmlns:xlink="http://www.w3.org/1999/xlink"
	 x="0px" y="0px" viewBox="-12 13 200 200" xml:space="preserve">
<g id="XMLID_33_">
	<polygon id="XMLID_56_" fill="#838282" stroke="#FFFFFF" stroke-width="0.4819" stroke-miterlimit="10" points="129.9,143.9 
		148.3,154.8 148.3,154.8 166.7,143.9 157.5,138.4 148.3,132.9 148.3,132.9 139.1,138.4 	"/>
	<polygon id="XMLID_35_" fill="#B3B3B3" stroke="#FFFFFF" stroke-width="0.4819" stroke-miterlimit="10" points="148.3,154.8 
		129.9,143.9 129.9,154.8 129.9,165.8 129.9,165.8 139.1,171.3 148.3,176.7 148.3,176.7 	"/>
	<polygon id="XMLID_34_" fill="#191919" stroke="#FFFFFF" stroke-width="0.4819" stroke-miterlimit="10" points="148.3,154.8 
		148.3,176.7 157.5,171.3 166.7,165.8 166.7,165.8 166.7,154.8 166.7,143.9 	"/>
</g>
<g id="XMLID_18_">
	<polygon id="XMLID_28_" fill="#838282" stroke="#FFFFFF" stroke-width="0.4819" stroke-miterlimit="10" points="11.4,143.8 
		29.8,154.8 29.8,154.8 48.2,143.8 39,138.3 29.8,132.9 29.8,132.9 20.6,138.3 	"/>
	<polygon id="XMLID_23_" fill="#B3B3B3" stroke="#FFFFFF" stroke-width="0.4819" stroke-miterlimit="10" points="29.8,154.8 
		11.4,143.8 11.4,154.8 11.4,165.7 11.4,165.7 20.6,171.2 29.8,176.7 29.8,176.7 	"/>
	<polygon id="XMLID_22_" fill="#191919" stroke="#FFFFFF" stroke-width="0.4819" stroke-miterlimit="10" points="29.8,154.8 
		29.8,176.7 39,171.2 48.2,165.7 48.2,165.7 48.2,154.8 48.2,143.8 	"/>
</g>
<g id="XMLID_17_">
	<polygon id="XMLID_21_" fill="#838282" stroke="#FFFFFF" stroke-width="0.4819" stroke-miterlimit="10" points="29.8,141.6 
		59.5,159.2 59.5,159.2 89.1,141.6 74.3,132.8 59.5,123.9 59.5,123.9 44.6,132.8 	"/>
	<polygon id="XMLID_20_" fill="#B3B3B3" stroke="#FFFFFF" stroke-width="0.4819" stroke-miterlimit="10" points="59.5,159.2 
		29.8,141.6 29.8,159.2 29.8,176.9 29.8,176.9 44.6,185.8 59.5,194.4 59.5,194.4 	"/>
	<polygon id="XMLID_19_" fill="#191919" stroke="#FFFFFF" stroke-width="0.4819" stroke-miterlimit="10" points="59.5,159.2 
		59.5,194.4 74.3,185.8 89.1,176.9 89.1,176.9 89.1,159.2 89.1,141.6 	"/>
</g>
<g id="XMLID_8_">
	<polygon id="XMLID_27_" fill="#838282" stroke="#FFFFFF" stroke-width="0.4819" stroke-miterlimit="10" points="89.1,141.9 
		118.7,159.4 118.7,159.4 148.3,141.9 133.5,133 118.7,124.1 118.7,124.1 103.9,133 	"/>
	<polygon id="XMLID_26_" fill="#B3B3B3" stroke="#FFFFFF" stroke-width="0.4819" stroke-miterlimit="10" points="118.7,159.4 
		89.1,141.9 89.1,159.4 89.1,177.1 89.1,177.1 103.9,186 118.7,194.7 118.7,194.7 	"/>
	<polygon id="XMLID_25_" fill="#191919" stroke="#FFFFFF" stroke-width="0.4819" stroke-miterlimit="10" points="118.7,159.4 
		118.7,194.7 133.5,186 148.3,177.1 148.3,177.1 148.3,159.4 148.3,141.9 	"/>
</g>
<g id="XMLID_6_">
	<polygon id="XMLID_16_" fill="#838282" stroke="#FFFFFF" stroke-width="0.4819" stroke-miterlimit="10" points="59.5,159.2 
		89.1,176.7 89.1,176.7 118.7,159.2 103.9,150.3 89.1,141.5 89.1,141.5 74.3,150.3 	"/>
	<polygon id="XMLID_15_" fill="#B3B3B3" stroke="#FFFFFF" stroke-width="0.4819" stroke-miterlimit="10" points="89.1,176.7 
		59.5,159.2 59.5,176.7 59.5,194.4 59.5,194.4 74.3,203.3 89.1,212 89.1,212 	"/>
	<polygon id="XMLID_7_" fill="#191919" stroke="#FFFFFF" stroke-width="0.4819" stroke-miterlimit="10" points="89.1,176.7 
		89.1,212 103.9,203.3 118.7,194.4 118.7,194.4 118.7,176.7 118.7,159.2 	"/>
</g>
<g id="XMLID_1_">
	<polygon id="XMLID_14_" fill="#F9ED74" stroke="#FFFFFF" stroke-width="0.4819" stroke-miterlimit="10" points="59.4,107.4 
		89.5,125.3 89.5,125.3 119.5,107.3 104.5,98.4 89.5,89.4 89.4,89.5 74.4,98.4 59.4,107.3 	"/>
	<polygon id="XMLID_13_" fill="#FAD800" stroke="#FFFFFF" stroke-width="0.4819" stroke-miterlimit="10" points="89.5,125.3 
		59.4,107.4 59.4,125.3 59.4,143.2 59.4,143.2 74.4,152.2 89.5,161.2 89.5,161.2 	"/>
	<polygon id="XMLID_12_" fill="#FBC022" stroke="#FFFFFF" stroke-width="0.4819" stroke-miterlimit="10" points="89.5,125.3 
		89.5,161.2 104.5,152.2 119.5,143.3 119.5,143.2 119.5,125.3 119.5,107.3 	"/>
</g>
<g id="XMLID_44_">
	<polygon id="XMLID_47_" fill="#838282" stroke="#FFFFFF" stroke-width="0.4819" stroke-miterlimit="10" points="70.9,25 89.3,35.9 
		89.3,35.9 107.7,25 98.5,19.5 89.3,14 89.3,14 80.1,19.5 	"/>
	<polygon id="XMLID_46_" fill="#B3B3B3" stroke="#FFFFFF" stroke-width="0.4819" stroke-miterlimit="10" points="89.3,35.9 70.9,25 
		70.9,35.9 70.9,46.9 70.9,46.9 80.1,52.4 89.3,57.9 89.3,57.9 	"/>
	<polygon id="XMLID_45_" fill="#191919" stroke="#FFFFFF" stroke-width="0.4819" stroke-miterlimit="10" points="89.3,35.9 
		89.3,57.9 98.5,52.4 107.7,46.9 107.7,46.9 107.7,35.9 107.7,25 	"/>
</g>
<g id="XMLID_40_">
	<polygon id="XMLID_43_" fill="#838282" stroke="#FFFFFF" stroke-width="0.4819" stroke-miterlimit="10" points="88.8,45.5 
		107.1,56.4 107.2,56.4 125.6,45.5 116.4,40 107.2,34.5 107.1,34.5 98,40 	"/>
	<polygon id="XMLID_42_" fill="#B3B3B3" stroke="#FFFFFF" stroke-width="0.4819" stroke-miterlimit="10" points="107.1,56.4 
		88.8,45.5 88.8,56.4 88.8,67.4 88.8,67.4 98,72.9 107.2,78.4 107.2,78.4 107.2,56.4 	"/>
	<polygon id="XMLID_41_" fill="#191919" stroke="#FFFFFF" stroke-width="0.4819" stroke-miterlimit="10" points="107.2,56.4 
		107.2,78.4 116.4,72.9 125.5,67.4 125.6,67.4 125.6,56.4 125.6,45.5 	"/>
</g>
<g id="XMLID_36_">
	<polygon id="XMLID_39_" fill="#838282" stroke="#FFFFFF" stroke-width="0.4819" stroke-miterlimit="10" points="108,56.5 
		126.4,67.4 126.4,67.4 144.8,56.5 135.6,51 126.4,45.5 126.4,45.5 117.2,51 	"/>
	<polygon id="XMLID_38_" fill="#B3B3B3" stroke="#FFFFFF" stroke-width="0.4819" stroke-miterlimit="10" points="126.4,67.4 
		108,56.5 108,67.4 108,78.4 108,78.4 117.2,83.9 126.4,89.3 126.4,89.3 	"/>
	<polygon id="XMLID_37_" fill="#191919" stroke="#FFFFFF" stroke-width="0.4819" stroke-miterlimit="10" points="126.4,67.4 
		126.4,89.3 135.6,83.9 144.8,78.4 144.8,78.4 144.8,67.4 144.8,56.5 	"/>
</g>
<g id="XMLID_2_">
	<polygon id="XMLID_11_" fill="#838282" stroke="#FFFFFF" stroke-width="0.4819" stroke-miterlimit="10" points="52.7,45.5 
		71.1,56.4 71.1,56.4 89.5,45.4 80.3,40 71.1,34.5 71.1,34.5 61.9,40 52.7,45.4 	"/>
	<polygon id="XMLID_10_" fill="#B3B3B3" stroke="#FFFFFF" stroke-width="0.4819" stroke-miterlimit="10" points="71.1,56.4 
		52.7,45.5 52.7,56.4 52.7,67.4 52.7,67.4 61.9,72.9 71.1,78.4 71.2,78.4 	"/>
	<polygon id="XMLID_9_" fill="#191919" stroke="#FFFFFF" stroke-width="0.4819" stroke-miterlimit="10" points="71.1,56.4 
		71.2,78.4 80.3,72.9 89.5,67.4 89.5,67.4 89.5,56.4 89.5,45.4 	"/>
</g>
<g id="XMLID_24_">
	<polygon id="XMLID_5_" fill="#838282" stroke="#FFFFFF" stroke-width="0.4819" stroke-miterlimit="10" points="34,56.4 52.4,67.4 
		52.4,67.4 70.8,56.4 61.6,50.9 52.4,45.5 52.4,45.5 43.2,50.9 	"/>
	<polygon id="XMLID_4_" fill="#B3B3B3" stroke="#FFFFFF" stroke-width="0.4819" stroke-miterlimit="10" points="52.4,67.4 34,56.4 
		34,67.4 34,78.3 34,78.3 43.2,83.8 52.4,89.3 52.4,89.3 	"/>
	<polygon id="XMLID_3_" fill="#191919" stroke="#FFFFFF" stroke-width="0.4819" stroke-miterlimit="10" points="52.4,67.4 
		52.4,89.3 61.6,83.8 70.8,78.3 70.8,78.3 70.8,67.4 70.8,56.4 	"/>
</g>
<g id="XMLID_48_">
	<polygon id="XMLID_51_" fill="#838282" stroke="#FFFFFF" stroke-width="0.4819" stroke-miterlimit="10" points="126.4,67.5 
		144.8,78.4 144.8,78.4 163.2,67.5 154,62 144.8,56.5 144.8,56.5 135.6,62 	"/>
	<polygon id="XMLID_50_" fill="#B3B3B3" stroke="#FFFFFF" stroke-width="0.4819" stroke-miterlimit="10" points="144.8,78.4 
		126.4,67.5 126.4,78.4 126.4,89.4 126.4,89.4 135.6,94.9 144.8,100.3 144.8,100.3 	"/>
	<polygon id="XMLID_49_" fill="#191919" stroke="#FFFFFF" stroke-width="0.4819" stroke-miterlimit="10" points="144.8,78.4 
		144.8,100.3 154,94.9 163.2,89.4 163.2,89.4 163.2,78.4 163.2,67.5 	"/>
</g>
<g id="XMLID_52_">
	<polygon id="XMLID_55_" fill="#838282" stroke="#FFFFFF" stroke-width="0.4819" stroke-miterlimit="10" points="15.6,67.4 34,78.4 
		34,78.4 52.4,67.4 43.2,61.9 34,56.5 34,56.5 24.8,61.9 	"/>
	<polygon id="XMLID_54_" fill="#B3B3B3" stroke="#FFFFFF" stroke-width="0.4819" stroke-miterlimit="10" points="34,78.4 15.6,67.4 
		15.6,78.4 15.6,89.3 15.6,89.3 24.8,94.8 34,100.3 34,100.3 	"/>
	<polygon id="XMLID_53_" fill="#191919" stroke="#FFFFFF" stroke-width="0.4819" stroke-miterlimit="10" points="34,78.4 34,100.3 
		43.2,94.8 52.4,89.3 52.4,89.3 52.4,78.4 52.4,67.4 	"/>
</g>
</svg>
