<svg id="Capa_1" data-name="Capa 1" xmlns="http://www.w3.org/2000/svg" xmlns:xlink="http://www.w3.org/1999/xlink" viewBox="0 0 243 229"><defs><style>.cls-1{fill:212d5c;}.cls-2{clip-path:url(#clip-path);}.cls-3{fill:#212d5c;}</style><clipPath id="clip-path"><rect class="cls-1" x="472" y="-368" width="397" height="165"/></clipPath></defs><title>Iconos</title>><path class="cls-3" d="M56.69,106.14a16.56,16.56,0,0,0,12.44,16v54.49H60.84a4.15,4.15,0,0,0,0,8.29H185.25a4.15,4.15,0,1,0,0-8.29H177V122.15a16.56,16.56,0,0,0,12.44-16V102H56.69Zm82.94,16.59a16.58,16.58,0,0,0,16.59-16.59,16.56,16.56,0,0,0,12.44,16v54.49H106.45V122.73A16.59,16.59,0,0,0,123,106.14a16.59,16.59,0,0,0,16.59,16.59Zm-37.32-.58v54.49H77.42V122.15a16.56,16.56,0,0,0,12.44-16,16.56,16.56,0,0,0,12.44,16Zm70.5-57.48H73.28L56.69,97.85H189.4ZM91.73,73.89,83.43,90.48a2.09,2.09,0,0,1-1.86,1.15,2,2,0,0,1-.92-.22,2.07,2.07,0,0,1-.92-2.78L88,72a2.07,2.07,0,1,1,3.71,1.85Zm16.59,0L100,90.48a2.09,2.09,0,0,1-1.86,1.15,2,2,0,0,1-.92-.22,2.07,2.07,0,0,1-.92-2.78L104.61,72a2.07,2.07,0,1,1,3.71,1.85Zm16.8,15.66a2.07,2.07,0,1,1-4.15,0V73a2.07,2.07,0,0,1,4.15,0Zm23.81,1.81a2.07,2.07,0,0,1-2.82-.82L137,74a2.08,2.08,0,0,1,3.64-2l9.07,16.59a2.08,2.08,0,0,1-.83,2.81Zm16.51,0a2,2,0,0,1-.92.22,2,2,0,0,1-1.85-1.15l-8.29-16.59A2.07,2.07,0,1,1,158.08,72l8.29,16.59a2.07,2.07,0,0,1-.94,2.78Zm-92.16-35a4.15,4.15,0,0,1,4.15-4.15h91.24a4.15,4.15,0,0,1,0,8.29H77.42a4.15,4.15,0,0,1-4.15-4.15ZM149.9,142m-50.22,2.76a3.37,3.37,0,1,1-3.37-3.37A3.37,3.37,0,0,1,99.68,144.76Z"/></svg>