<svg id="Capa_1" data-name="Capa 1" xmlns="http://www.w3.org/2000/svg" viewBox="0 0 243 229"><defs><style>.cls-1m,.cls-2{fill:#212d5c;}.cls-1m{stroke:#fff;stroke-miterlimit:10;stroke-width:3px;}</style></defs><title>Iconos</title><path class="cls-1m" d="M188.06,84.11h13V62.48h-13V49.56H54.23V62.48h-13V84.11h13V97H76.15L72,101.65a17.52,17.52,0,0,0-1.46,1.88H54.23v12.91h-13v21.63h13V151H66v31.56H176.29V151h11.78V138.07h13V116.45h-13V103.53H171.78a19.28,19.28,0,0,0-1.44-1.88L166.14,97h21.92Zm-23.49,22.76a15,15,0,0,1,2.52,4.45,19.2,19.2,0,0,1,1.43,6.59v56.86H73.77V117.9a19.19,19.19,0,0,1,1.43-6.59,15.23,15.23,0,0,1,2.52-4.45l3-3.33.78-.86h79.26l.78.86ZM49,130.3v-6.07h5.19v6.07Zm13,12.93V111.31h5a24.76,24.76,0,0,0-1,6.59v25.32Zm131.25-19v6.07h-5.19v-6.07Zm-13-12.91v31.91h-4V117.9a24.73,24.73,0,0,0-1-6.59Zm13-41.06v6.07h-5.19V70.26ZM49,76.33V70.26h5.19v6.07ZM180.3,89.24H62V57.33H180.3Zm0,0"/><path class="cls-2" d="M157.34,111.31a3.76,3.76,0,0,0-1.87-.51H86.83a3.76,3.76,0,0,0-1.87.51,3.88,3.88,0,0,0,1.87,7.27h68.64a3.88,3.88,0,0,0,1.87-7.27Zm0,0"/></svg>