<svg id="Capa_2" data-name="Capa 2" xmlns="http://www.w3.org/2000/svg" viewBox="0 0 119.06 180.27"><path d="M178.71,104.23c-3-2.31-6-4.62-9-6.91a1.78,1.78,0,0,0-.34-.19l1.35-1.59a35.67,35.67,0,0,0,6.38-9.36c2-4.77,2.9-9.6,1.38-14.72a33.74,33.74,0,0,0-4-9.47,1.69,1.69,0,0,1-.29-1.27q.18-1.44.24-2.88c0-.44.16-.57.59-.55,1,0,1.11-.09,1-1.08s-.17-1.91-.25-2.86c.1,0,.14-.08.19-.08.31-.05.62-.15.61-.52s-.33-.47-.67-.52a.46.46,0,0,1-.31-.31c-.22-1.1-.41-2.2-.61-3.31a1,1,0,0,1,0-.24l.13.1c.23-.22.61-.42.63-.66,0-.51-.42-.46-.8-.5a.5.5,0,0,1-.35-.28c-.24-1-.44-2-.67-3,.81-.18.87-.27.82-1.05s-.15-1.41-.13-2.1a1.27,1.27,0,0,0-1.09-1.43,1.37,1.37,0,0,1-1.07-1,44.73,44.73,0,0,0-8.33-14.59,47,47,0,0,0-11.6-9.75,78.8,78.8,0,0,0-10.85-5A46.76,46.76,0,0,0,125.3,5.79a116.43,116.43,0,0,0-13.21.53,53.19,53.19,0,0,0-9.77,1.8,57.13,57.13,0,0,0-12.57,5.75,62.36,62.36,0,0,0-12.06,9A42.19,42.19,0,0,0,66.24,42.23a63.85,63.85,0,0,0-1.86,15.28.53.53,0,0,1-.38.58c-.71.3-1.41.63-2.12.94a.56.56,0,0,0-.34.84c.23.55.46,1.1.66,1.66s.34.85.86.82c0,.73,0,1.42.09,2.09.13,1,0,1.68-1.14,1.86a.45.45,0,0,0-.36.65c.12.33.4.35.7.26s.52-.17.86-.28c0,.5.09.94.14,1.38l-.19-.06a3.7,3.7,0,0,0-.53.8c-.28.85-.48,1.73-.73,2.59A38.44,38.44,0,0,0,60.74,89.5,17.24,17.24,0,0,0,62.91,96a27.08,27.08,0,0,0,2.93,3.49,43.28,43.28,0,0,0,8.47,7.4s.08.1.13.16l-.16.23L65.55,118.9c-.47.62-.36.94.38,1.1,1.14.25,2.27.51,3.4.73a.84.84,0,0,1,.73.63c.36,1,.74,2,1.14,3,.08.2.3.46.46.48s.37-.25.56-.39,0-.09.08-.13q1.89-3.14,3.79-6.27l4.71-7.8c.17-.28.32-.39.66-.26,1.1.41,2.23.75,3.32,1.19,4,1.58,8,3.19,12,4.79a1.79,1.79,0,0,1,.24.15c-.15.32-.29.62-.44.92q-3.16,6.4-6.32,12.8c-.38.76-.2,1,.65,1,1.23-.07,2.46-.13,3.68-.23a.91.91,0,0,1,.9.39c.71.93,1.45,1.85,2.21,2.74a.78.78,0,0,0,.61.28c.15,0,.26-.31.38-.49a1.46,1.46,0,0,0,0-.2l3.72-14.76c0-.18.1-.36.16-.58.22.06.39.1.55.16,2.82,1.06,5.66,2.09,8.47,3.18a18.8,18.8,0,0,1,4.62,2.5c3.43,2.63,5.37,6.29,7.12,10.09.24.53.15.64-.46.74s-.74.25-.7.87c0,.35.07.69.08,1s.1,1,.77,1q0,15-.07,29.81c-.73.16-.8.29-.54.95s.46,1.14.67,1.72a.65.65,0,0,0,.85.49c.62-.2.83.08.9.62,0,.1.07.2.1.3l4.53,13.08a2.35,2.35,0,0,0,2.31,1.53c1.31-.1,2.62-.23,3.94-.34l14.54-1.2c.18,0,.43,0,.54-.15.63-.71,1.41-1.32,1.46-2.4.06-1.32.21-2.63.32-3.94.33-3.89.67-7.79,1-11.74.63,0,.71-.45.72-1s0-1.13.06-1.69c.05-1,0-1.07-1-1h-.11c-.44.14-.63,0-.75-.48q-3.58-13.65-7.22-27.29c0-.19-.09-.39-.14-.62l.42-.08c.54-.06.65-.19.56-.71s-.2-1-.28-1.5a.6.6,0,0,0-.77-.57,6.57,6.57,0,0,1-.78,0c0-.2,0-.34,0-.47a36.75,36.75,0,0,1,1.36-9.15,6.2,6.2,0,0,1,.84-1.85,60.64,60.64,0,0,1,7.68-8.8l10.42-9.76.42-.36.44.5q3.9,4.8,7.83,9.59c.15.18.48.41.61.35a1,1,0,0,0,.41-.64c.25-1.2.47-2.41.67-3.62a.75.75,0,0,1,.55-.68q1.53-.57,3-1.2a1.14,1.14,0,0,0,.63-.54C179.21,104.7,178.92,104.39,178.71,104.23ZM175.2,56.39c-.24,0-.4,0-.57,0a53.12,53.12,0,0,1-9.23-1.19,8.86,8.86,0,0,1-4.81-3.13,32.74,32.74,0,0,1-5.23-8.79c0-.06,0-.13-.07-.28.94,0,1.82,0,2.69.1.15,0,.32.23.43.39.77,1.11,1.52,2.24,2.28,3.36a13.61,13.61,0,0,0,7.55,5.4,18.77,18.77,0,0,0,6.25,1c.14,0,.41.14.42.24C175,54.48,175.1,55.41,175.2,56.39Zm-55.6,54.76c1.79-.37,3.57-.76,5.35-1.14a1.65,1.65,0,0,1,.23,0c.11.7.21,1.4.31,2.1.16,1.11.31,2.22.47,3.33.05.32,0,.48-.37.53-2,.3-4,.62-6,.93h-.23c0-.73-.07-1.41-.08-2.09,0-1,0-2.1,0-3.15C119.21,111.37,119.29,111.21,119.6,111.15Zm-.39-4.21c0-.08.2-.23.31-.24,1.62-.08,3.25-.14,4.88-.18.12,0,.32.2.34.33a17.5,17.5,0,0,1,.24,1.77.5.5,0,0,1-.27.4c-1.77.4-3.55.77-5.33,1.14,0,0-.07,0-.06,0C119.27,109.06,119.22,108,119.21,106.94Zm6.61,1.71c-.1-.73-.21-1.45-.31-2.22.64-.07,1.23-.13,1.81-.21,1.16-.17,2.32-.33,3.48-.53.32,0,.49,0,.5.34s.5.74-.07.93c-1.73.61-3.49,1.16-5.23,1.73Zm.47,1c1.7-.59,3.42-1.14,5.13-1.71.24-.08.4-.08.48.21.58,2.14,1.17,4.29,1.78,6.51l-4.59.73c-.61.09-1.22.18-1.82.29-.32.05-.48,0-.53-.37-.23-1.76-.49-3.51-.71-5.26A.47.47,0,0,1,126.29,109.68Zm5.71-4.19,4.19-1.22c.07.2.14.37.23.62l-4.11,1.69C132.2,106.18,132.1,105.85,132,105.49Zm.66,2.39a.45.45,0,0,1,.15-.41c1.3-.56,2.62-1.09,4-1.65L140,113.7l-5.56.87C133.85,112.31,133.25,110.1,132.66,107.88Zm4.27-3.9,2.8-1.15c0,.28,0,.55-.13.6-.77.39-1.57.73-2.4,1.11Zm.87,2.11c-.08-.18-.15-.36-.25-.61l2.7-1.21,3.85,8.79c-.87.14-1.66.28-2.45.39s-.81.11-1.12-.64Zm-11.5-.57a118.32,118.32,0,0,1-17,.22c-1.76-.1-3.5-.49-5.25-.75a1.48,1.48,0,0,1-.54-.21,37.1,37.1,0,0,1-7.35-5.6c-1.18-1.28-2.24-2.66-3.36-4a3.07,3.07,0,0,1-.23-.38c1.25-.45,2.45-.85,3.62-1.31a107.08,107.08,0,0,1,19.51-5.17A167.41,167.41,0,0,1,135,85.65a174,174,0,0,1,23,0c1.1.06,2.2.15,3.31.22.15,0,.3,0,.58.08-.38.34-.67.6-1,.85A170.52,170.52,0,0,1,144,99.54,38.24,38.24,0,0,1,126.3,105.52Zm-7.84,11.09c0,.35-.1.49-.45.54-1.58.23-3.15.49-4.85.75l.25-2.92c.07-.8.12-1.61.23-2.41,0-.16.19-.41.32-.43,1.45-.26,2.9-.49,4.41-.73a3.46,3.46,0,0,1,.06.52C118.44,113.49,118.44,115.05,118.46,116.61ZM101,104.15c-2.15,0-14.45-5.18-16.06-6.73l1.91-.65c1.43-.49,2.86-1,4.27-1.49a.67.67,0,0,1,.92.27c.81,1.06,1.65,2.09,2.51,3.11a26.24,26.24,0,0,0,5.49,4.81ZM150.91,84.5a144.71,144.71,0,0,0-29.9,2,161.86,161.86,0,0,0-19.28,4.2c-3.18,1-6.27,2.17-9.4,3.25l-9.26,3.19c-.69.23-1.25,0-1.42-.53-.12-.34,0-.5.3-.63,1.56-.59,3.11-1.22,4.66-1.82,7.1-2.71,14.23-5.33,21.55-7.39a129.67,129.67,0,0,1,18.33-3.6,116.62,116.62,0,0,1,17-1.19c6.94.1,13.86.47,20.77,1.06.69.06,1.36.23,2.18.37-.62.68-1.11,1.25-1.65,1.76-.12.12-.42.11-.64.09C159.74,85,155.33,84.67,150.91,84.5ZM64.15,66.76c.19-.43.85-.67,1.33-1a18.1,18.1,0,0,0,3.9-3.18,4.56,4.56,0,0,0,1.29-2.48.71.71,0,0,1,.58-.65c.53-.16,1-.36,1.64-.57a15.28,15.28,0,0,1-8.21,11.6c-.14-.7-.3-1.38-.41-2.06A3.48,3.48,0,0,1,64.15,66.76ZM64,62l5.6-2,.13.09a5.15,5.15,0,0,1-.38,1,14.6,14.6,0,0,1-5.21,4.37C64,64.22,64,63.11,64,62Zm1.27,9.45A25.65,25.65,0,0,0,67.37,70a15.38,15.38,0,0,0,6.29-9.76,2.31,2.31,0,0,1,2-2.24,8.27,8.27,0,0,0,1.15-.41,13.68,13.68,0,0,1-.2,1.67,24.65,24.65,0,0,1-4.7,9.79,9.87,9.87,0,0,1-6.4,3.31.51.51,0,0,1-.42-.22C65,71.91,64.86,71.64,65.22,71.42ZM86.53,57.49A4.27,4.27,0,0,0,93,55.42a13.65,13.65,0,0,0,.83-3c.1-.51.25-.77.76-.88s1.3-.37,2.09-.6a11.31,11.31,0,0,1-2.86,6,10.63,10.63,0,0,1-2.55,1.91A6.31,6.31,0,0,1,85.7,59a11.66,11.66,0,0,1-4.25-3.08c.76-.27,1.45-.52,2.14-.72.13,0,.33.14.47.25A22.46,22.46,0,0,0,86.53,57.49Zm-1.75-2.83L92.87,52c0,.23,0,.36,0,.49a7.4,7.4,0,0,1-1.13,3.25,3.19,3.19,0,0,1-4.13,1.23A7.25,7.25,0,0,1,84.78,54.66Zm-.68,4.71a8.27,8.27,0,0,0,10.79-2.12,12.86,12.86,0,0,0,2.73-5.86.88.88,0,0,1,.68-.8c.74-.22,1.46-.49,2.28-.76a4.94,4.94,0,0,1,0,.62A13.71,13.71,0,0,1,87,62a11.38,11.38,0,0,1-9-4.44c-.06-.08-.11-.18-.21-.33.86-.29,1.63-.58,2.42-.81a.74.74,0,0,1,.55.25A13.58,13.58,0,0,0,84.1,59.37Zm-3.72,1.48a11.63,11.63,0,0,0,8.84,1.85c.48-.09.69,0,.86.48.36,1.06.75,2.13,1.12,3.18l.76-.28c-.45-1.21-.88-2.41-1.33-3.65l1.45-.5,1.19,3.66.75-.28c-.35-1.08-.69-2.16-1-3.24-.11-.3-.1-.48.25-.65a14.29,14.29,0,0,0,7.94-9.74c0-.13.07-.27.11-.4a1.28,1.28,0,0,1,.09-.14l1,1.17a17.52,17.52,0,0,0,6,4.37,1,1,0,0,1,.49.58c.33,1.49.63,3,.94,4.48l.74-.12c-.06-.27-.11-.54-.16-.81-.25-1.18-.47-2.36-.72-3.63.68.15,1.26.26,1.83.41.09,0,.2.19.22.3.19,1.15.38,2.3.56,3.44l.79-.12c-.19-1.15-.38-2.3-.57-3.48a16.34,16.34,0,0,0,10.57-3.08,19.36,19.36,0,0,0,6.64-8.8,25,25,0,0,0,1.34,2.44c.76,1.07,1.63,2.06,2.44,3.09a1.28,1.28,0,0,1,.32.62c.12,2.26.22,4.51.32,6.77l.82,0c-.08-2.1-.16-4.21-.25-6.36.45.28.85.52,1.23.78a.56.56,0,0,1,.17.36c.14,1.76.26,3.51.39,5.27l.83,0c-.12-1.63-.25-3.27-.36-4.9,0,0,0-.1,0-.21a12.22,12.22,0,0,0,11.14-.87c.11.81.23,1.52.3,2.25.14,1.37.25,2.74.37,4.12l.81,0,0-.33c-.21-2.05-.41-4.11-.66-6.16-.1-.77.62-.77.86-1.2l.19,0q.41,3.81.83,7.68l.74,0c-.29-2.72-.59-5.44-.88-8.16a.8.8,0,0,1,.16-.57,21,21,0,0,0,3.8-6,1.59,1.59,0,0,1,.17-.27c.11.23.21.4.29.57a32.67,32.67,0,0,0,4.72,7.64A9.77,9.77,0,0,0,165,56c.13,0,.3.33.29.49-.15,1.91-.23,3.83-.51,5.71a71.63,71.63,0,0,1-5.55,18.84.93.93,0,0,1-1.06.64c-2.72-.18-5.44-.3-8.15-.44l-.5,0c.06-.27.11-.51.16-.76l-.84,0-.12.58c0,.09-.2.19-.31.2-.33,0-.66,0-1.05,0l.15-.78-.81,0c-.05.24-.09.48-.14.72l-10.6.17.18-1-.83,0c0,.22-.08.43-.11.65-.05.38-.2.52-.56.51s-.59,0-.94,0c.07-.38.13-.75.2-1.13l-.86,0c-.06.33-.11.67-.19,1,0,.12-.35.24-.54.26-2.06.24-4.12.45-6.18.71-1.63.2-3.26.46-4.89.72a.62.62,0,0,1-.78-.38l-.11-.19-.78.25.27.49c-.41.16-.71.29-1-.22v0l-.81.26.13.2-2.93.72L109.6,86l-9.86,2.46-8.55,3c-.8-1.11-1.61-2.18-2.37-3.29C87,85.45,85.1,82.72,83.27,80a26.4,26.4,0,0,1-3.58-8c-.83-3.19-1.57-6.41-2.3-9.63-.13-.58-.49-1.13-.19-1.81a12.3,12.3,0,0,0,.46-1.81C78.57,59.42,79.43,60.21,80.38,60.85Zm31.18-10.21a7.35,7.35,0,0,0,8.9-1.65,20.48,20.48,0,0,0,2.05-3,1,1,0,0,1,.78-.58c.71-.09,1.4-.24,2.25-.39-.24.66-.41,1.19-.63,1.69a11.41,11.41,0,0,1-8.77,7.19,10.32,10.32,0,0,1-7.35-1.57,17,17,0,0,1-3.64-3c-.11-.13-.21-.27-.39-.48,1.12-.25,2.15-.49,3.19-.69.16,0,.38.14.52.28A11.25,11.25,0,0,0,111.56,50.64Zm-2.19-2.75v-.24l12.14-2.23.09.18c-1.08,2.16-2.54,4-5,4.63C113.69,51,111.42,49.74,109.37,47.89Zm-.82,5.42a11.74,11.74,0,0,0,16.18-4.17,26.07,26.07,0,0,0,1.68-3.73c.15-.38.3-.57.71-.62.68-.08,1.35-.22,2.08-.34a1.6,1.6,0,0,1-.06.39,17.87,17.87,0,0,1-7.86,9.94c-6.06,3.54-12.79,2.57-17.73-2.53-.64-.65-1.19-1.38-1.77-2.08-.12-.15-.2-.32-.34-.54.72-.18,1.38-.36,2-.48.14,0,.36.17.48.32A18.54,18.54,0,0,0,108.55,53.31ZM138.08,47c2,2.21,7.46,2.45,9.73-.74.66-.91,1.32-1.82,1.89-2.79a1,1,0,0,1,1.08-.59l.72,0a1.82,1.82,0,0,1-.05.23,20.85,20.85,0,0,1-6,6.49,6.32,6.32,0,0,1-7.24.09,16.24,16.24,0,0,1-5.17-5.45.77.77,0,0,1-.06-.23c.78-.09,1.53-.18,2.3-.23.13,0,.28.23.4.37C136.5,45.12,137.25,46.09,138.08,47Zm-1.53-3.29.08-.22,12.12-.7c0,.16.06.2.05.22a12.71,12.71,0,0,1-2.61,3.48,5.55,5.55,0,0,1-4.1,1.13,5.28,5.28,0,0,1-3.93-1.94C137.6,45,137.08,44.36,136.55,43.71Zm-1,5.27a10.32,10.32,0,0,0,4.7,2.68A7.63,7.63,0,0,0,146.67,50a22.33,22.33,0,0,0,5.49-6.13c.67-1,.81-1.09,2.09-.84,0,.13,0,.26-.08.38a18.9,18.9,0,0,1-5.12,7.67,11,11,0,0,1-15.13-.56,16.11,16.11,0,0,1-3.6-5.76,2.33,2.33,0,0,1-.07-.25,1.19,1.19,0,0,1,0-.25,13.43,13.43,0,0,1,1.41,0c.14,0,.31.21.4.35A21,21,0,0,0,135.6,49Zm30.56,7.35c1.1.07,1.09.1,1.07,1.25a51.76,51.76,0,0,1-3.36,16.91c-.8,2.17-1.59,4.35-2.4,6.52-.38,1-.45,1-1.6.73A71,71,0,0,0,166.16,56.33ZM80,75.34a35.29,35.29,0,0,0,4,7.22c2.08,3.08,4.23,6.12,6.38,9.23-.63.24-1.28.52-1.94.72a.64.64,0,0,1-.52-.27c-1.6-2.2-3.16-4.43-4.76-6.63a60.1,60.1,0,0,1-8.4-17.72,2,2,0,0,1,.18-1.78c.53-1,.94-2,1.4-3a1,1,0,0,1,.29-.43c.07.31.14.62.2.93A77,77,0,0,0,80,75.34Zm-9.29-4a13.39,13.39,0,0,0,3.21-3.44c.11.32.19.54.26.77A59.2,59.2,0,0,0,78.77,80c1.69,3,3.64,5.79,5.53,8.64.94,1.43,2,2.79,3.06,4.25l-5.91,2.32c-1.86-1.88-3.69-3.76-5.57-5.59a37.33,37.33,0,0,1-9-15l-.51-1.47A13.18,13.18,0,0,0,70.7,71.35Zm94.47,10.9c-1-.09-2-.21-3.18-.33.33-.87.65-1.68.95-2.5a97.84,97.84,0,0,0,4-12.37,48.23,48.23,0,0,0,1.1-9.51c0-.27,0-.55,0-.89.37.05.69.1,1,.13,1.38.15,2.75.3,4.13.42.35,0,.48.13.46.51a48.49,48.49,0,0,1-7.08,22.74c-.33.54-.69,1.06-1.05,1.57A.54.54,0,0,1,165.17,82.25Zm9.06-33.16c.16,1,.38,2.06.6,3.23a22.72,22.72,0,0,1-2.55-.11,21.83,21.83,0,0,1-7.11-2.36,9.42,9.42,0,0,1-3-2.71c-.94-1.22-1.79-2.51-2.68-3.77a1.67,1.67,0,0,1-.14-.32,2.34,2.34,0,0,1,2.17.6c3.16,3.47,7.28,4.65,11.8,4.71C173.93,48.37,174.14,48.55,174.23,49.09ZM162.41,43c.67,0,1.3,0,1.91.09,2.66.2,5.32.43,8,.61a.85.85,0,0,1,.92.85c.14.92.38,1.82.57,2.72C171.24,47.87,164.36,46,162.41,43ZM87.25,16.35a66.39,66.39,0,0,1,14-7,45.51,45.51,0,0,1,9.09-2,88.16,88.16,0,0,1,14-.73c2.68.08,5.35.39,8,.6.19,0,.37.08.65.14a3.68,3.68,0,0,1-.35.25A133.82,133.82,0,0,1,112.25,15a63.29,63.29,0,0,1-12.17,1.8,103.37,103.37,0,0,1-12.57,0c-.19,0-.37,0-.66-.08C87,16.52,87.14,16.42,87.25,16.35Zm-2.83,1.91A3.25,3.25,0,0,1,87,17.49a101.92,101.92,0,0,0,13.31.07A68.86,68.86,0,0,0,119,13.81,148.7,148.7,0,0,0,133.6,8a3,3,0,0,1,2.4.1c-.15.11-.24.19-.34.25A113.9,113.9,0,0,1,114.9,17a64.74,64.74,0,0,1-11.8,2.11c-4.95.5-9.91.67-14.88.68-1.74,0-3.48-.05-5.22-.08l-.44-.05C83.25,19.13,83.86,18.73,84.42,18.26ZM65.22,55.88a63.59,63.59,0,0,1,1.49-12.22A41.05,41.05,0,0,1,78.22,23.44c.93-.91,1.93-1.75,2.88-2.63a1.41,1.41,0,0,1,1.06-.35c4.84,0,9.69,0,14.53-.11a84.51,84.51,0,0,0,14.53-1.63,74.73,74.73,0,0,0,15.35-5.16c3.44-1.54,6.8-3.27,10.2-4.9a1.21,1.21,0,0,1,.78-.14,66.07,66.07,0,0,1,15.54,6.82,43.4,43.4,0,0,1,17.42,20.22c.39.92.77,1.85,1.15,2.77.06.16.11.32.18.52-5.36-1-10.68-.79-16-.75-6.67,0-13.35.11-20,.55a136,136,0,0,0-14.18,1.92c-5.45.93-10.89,2-16.27,3.21a184.92,184.92,0,0,0-23.35,7.13c-5.45,2-10.84,4.26-16.26,6.39l-.63.25C65.19,56.94,65.2,56.41,65.22,55.88Zm-2.35,5c-.42-1.11-.44-1.11.73-1.63A274.94,274.94,0,0,1,100,46.05a183.21,183.21,0,0,1,19.8-4.29c5.08-.82,10.17-1.51,15.27-2.23a24.28,24.28,0,0,1,2.57-.19c9.51-.38,19-.58,28.54-.23a24,24,0,0,1,7,1.11.71.71,0,0,1,.58.75c0,.66,0,1.32.07,2-2.29-.19-4.53-.41-6.77-.57a147.17,147.17,0,0,0-15.57-.5c-5.09.18-10.17.48-15.24.83-3.1.22-6.2.5-9.26,1-6,1-12,2.13-18,3.17a114.89,114.89,0,0,0-15.09,3.8c-3.1,1-6.16,2-9.23,3.1q-6.9,2.36-13.78,4.75c-2.43.85-4.86,1.73-7.28,2.62C63.2,61.32,63,61.27,62.87,60.85Zm.61,8.77c.6,1.19.53,1.46-.48,1.84C63.16,70.84,63.31,70.29,63.48,69.62Zm8.3,54c-.35-.91-.7-1.67-.93-2.47a1.56,1.56,0,0,0-1.42-1.24c-1-.15-2-.42-3.14-.66L75.2,107.4l5,2.38C77.36,114.41,74.6,119,71.78,123.63Zm29.83-5.1c-.68,2.74-1.38,5.48-2.06,8.22l-1.38,5.45c0,.17-.09.34-.18.65-.73-.91-1.39-1.69-2-2.51a1.19,1.19,0,0,0-1.16-.53c-1.2.08-2.41.1-3.74.15,2.21-4.48,4.4-8.91,6.61-13.37l3.75,1.34C101.82,118.06,101.66,118.31,101.61,118.53Zm3.2-.88c-6.36-1.92-12.47-4.5-18.62-7-2.09-.85-4.24-1.57-6.38-2.32a27.08,27.08,0,0,1-10.46-6.7c-1.53-1.55-3-3.1-4.54-4.69a11.79,11.79,0,0,1-2.63-5.5,34.32,34.32,0,0,1,0-16.73,2.93,2.93,0,0,0,.13-.57c0-1.18.79-1.69,1.85-2,.07.23.13.43.18.63.11.41.34.66.79.57s.5.1.62.43a46.83,46.83,0,0,0,5.06,11,47,47,0,0,0,5.92,6.91c1.18,1.2,2.4,2.36,3.62,3.53a.87.87,0,0,1,.28.65,6.06,6.06,0,0,0,.44,1.67c.15.37,1.44.67,1.93.56.33-.08.76-.27,1-.13.65.37,1.45.55,1.86,1.3a57,57,0,0,0,4.61,7.29,17,17,0,0,0,3.29,3.32A103.43,103.43,0,0,0,105,117.49a.76.76,0,0,1,.35.34ZM121.47,128a13.37,13.37,0,0,1,3.65,6.29l-.53.06A46.21,46.21,0,0,0,121.47,128Zm4.84,44.86-.87-2.56,6.44-.93c.25.47.47.84.65,1.22.57,1.17,1.38,2.24,1.46,3.63a2.26,2.26,0,0,1-2.22,2.46,2.43,2.43,0,0,1-2.61-3.15,27.61,27.61,0,0,1,1.2-3.08c0-.11.15-.21.16-.32a1,1,0,0,0-.1-.36c-.1.06-.24.1-.28.18-.53,1.18-1.08,2.36-1.56,3.56-.13.33-.22.46-.59.48C126.71,174.05,126.72,174.07,126.31,172.88Zm19.62.19-3.7.15c.06-1.93-1.15-3.38-2.2-5l6.51-.93C146.12,169.21,145.54,171,145.93,173.07Zm-4.5-.94a1.9,1.9,0,0,1-.54,2.07,1.86,1.86,0,0,1-2.18.37,1.8,1.8,0,0,1-1.12-1.81c0-1,.24-2,.37-2.95,0-.33.09-.65.16-1.05-.71.61-1.07,2.37-1.06,4.87l-2.27.09c-.69-1.48-1.38-2.94-2.09-4.45l6.75-1a4.94,4.94,0,0,0,.36.9A10.52,10.52,0,0,1,141.43,172.13ZM148,183.91l-5.25.44-10.76.88a1.62,1.62,0,0,1-1.83-1.2q-1.54-4.47-3.1-8.95c-.06-.18-.11-.37-.18-.59.46,0,.87-.06,1.28,0,.11,0,.28.21.3.34a4.23,4.23,0,0,0,1.11,2,2.06,2.06,0,0,0,1.36.58,3.06,3.06,0,0,0,3.75-3.15s0-.06,0-.09v.14c.8,0,1.6-.07,2.39-.08a.39.39,0,0,1,.34.13,2.62,2.62,0,0,0,4.59-.61s0,0,0,.08c1,0,2-.07,3-.12.64,0,1.26-.14,1.73.49a1.38,1.38,0,0,0,.77.41c.36.08.44.26.45.58.13,2.75.26,5.5.41,8.26C148.51,183.79,148.34,183.88,148,183.91Zm-.87-10.31a2.56,2.56,0,0,1-.79-2.2c.14-1.37.33-2.73.51-4.15l.52-.07a18.1,18.1,0,0,0,1.37,1.3,5.1,5.1,0,0,1,1.71,2.39,2.07,2.07,0,0,1-1.6,2.92C148.28,173.93,147.69,174.13,147.14,173.6Zm5.38-4q-.53,6.17-1.06,12.32a2.15,2.15,0,0,1-1.79,1.82c-.27,0-.37-.08-.39-.35-.14-2.86-.29-5.72-.41-8.58a.49.49,0,0,1,.28-.39c2-.6,2.54-2.3,1.78-4.13a7.5,7.5,0,0,0-2.13-2.81c-.13-.11-.24-.25-.47-.49l4.46-.64C152.7,167.52,152.61,168.58,152.52,169.64Zm.18-5.94c.26-.08.51-.18.88-.31,0,.72,0,1.31-.08,1.89,0,.1-.25.22-.39.25l-7.87,1.14-14.81,2.12-6.14.89a.46.46,0,0,1-.6-.35c-.14-.44-.33-.87-.52-1.36l18.64-2.77,9.79-1.45a5,5,0,0,1,.67,0A1.31,1.31,0,0,0,152.7,163.7Zm-9.75-2a2.08,2.08,0,0,0,.3-.43c.2-.54.33-1.1.56-1.63.39-.88.52-.93,1.56-.86-.21.37-.42.73-.61,1.1a1.35,1.35,0,0,0-.19.54,1.14,1.14,0,0,0,.13.46,1.52,1.52,0,0,0,.38-.2c.41-.39.79-.8,1.2-1.18a.94.94,0,0,1,.52-.21,7,7,0,0,0-1.93,3.47l-.84-.31c-.31-.13-.52-.1-.52.3s0,.89.06,1.41l-10.88,1.62c-.06-.38-.12-.72-.15-1.05,0-.11.07-.3.14-.31.44-.07.52-.44.64-.75a3.75,3.75,0,0,0,0-2.58.51.51,0,0,0-.25-.26,4.91,4.91,0,0,1-.36,3c.17-2.63,0-3.19-.88-3.41,0,.09,0,.2,0,.25.72.83.42,1.73.24,2.65a2.44,2.44,0,0,1-.92,1.58,7.75,7.75,0,0,0-.87,1.08,2.1,2.1,0,0,1-.64.29c-.19-1.53-1.22-2.47-2-3.58a.13.13,0,0,1,.06-.08,18.84,18.84,0,0,0,3.11-2.52,1.6,1.6,0,0,1,2.26-.2,3.27,3.27,0,0,0,1.13.54,8.31,8.31,0,0,0,3.48.19,12.84,12.84,0,0,0,3.85-1.18,15.14,15.14,0,0,0,1.56-1.12l.61.43-.38.76-.1,0,0-.81-.14-.05c-.1.16-.26.32-.27.49-.07.71-.11,1.43-.12,2.14C142.65,161.38,142.85,161.52,143,161.66Zm4.34-1.89a1.12,1.12,0,0,1,.93,0,2.21,2.21,0,0,1,.91,3.25.68.68,0,0,1-.43.31c-.69.13-1.39.22-2.16.33-.43.15-.58-.14-.8-.56a1.46,1.46,0,0,1,0-1.47A4,4,0,0,1,147.29,159.77Zm-15.55,5.28c0,.83-.17,1-.94.86Zm-2.59,1.18-.83.17a4.49,4.49,0,0,0-1.69-3l.52-.42A6.76,6.76,0,0,1,129.15,166.23Zm-1.44.17-.16.11a17,17,0,0,1-1.24-1.56c-.12-.19,0-.56.07-1A3.21,3.21,0,0,1,127.71,166.4Zm24-4.1c0,.16.07.34.12.59l-1.77.25a12,12,0,0,0,.21-1.3,3.5,3.5,0,0,0-1.17-2.66,1.08,1.08,0,0,0-.47-.22c-.76-.24-1.54-.41-2.27-.72a3.1,3.1,0,0,0-2.14-.19c-.44.11-.67-.15-.55-.59s.3-1,.47-1.54a7.22,7.22,0,0,0-.42-4.93.79.79,0,0,1,0-.76c.61-1.07.53-1.71-.22-2.28a2.25,2.25,0,0,0-2.9,0,.56.56,0,0,1-.4.15,12.47,12.47,0,0,0-5.36.4c-.11,0-.33-.09-.43-.2-.86-1-2.42-.43-3,.45a1.41,1.41,0,0,0,.76,2.08,3.2,3.2,0,0,0,.64-.09l-.34-.28c-.92-.58-.93-1.35,0-1.89a1.19,1.19,0,0,1,1.57.18.57.57,0,0,1-.08.94,8,8,0,0,1-.77.42,2.12,2.12,0,0,0-.4.34c.18.08.42.27.51.21a4.32,4.32,0,0,0,1.29-.92,2.15,2.15,0,0,1,1.18-.78,8.8,8.8,0,0,1,4.72.09.29.29,0,0,1,.2.13,1.81,1.81,0,0,0,1.57,1.15,1,1,0,0,1,.8.72,7.64,7.64,0,0,1,.62,3.79,4.3,4.3,0,0,1-2.42,3.47,4.07,4.07,0,0,1-.5.13,3.81,3.81,0,0,0-.45.23l0,.16,1.22-.19,0,.05a4.42,4.42,0,0,1-.89.46,32.15,32.15,0,0,1-4.16,1.07,4.89,4.89,0,0,1-3.19-.67,4.69,4.69,0,0,1-.61-.52c.64-.26.68-.42.24-.8a5.29,5.29,0,0,1-1.3-6.38,1.6,1.6,0,0,0,.15-.85,5.42,5.42,0,0,0-1.5,3.87,5.35,5.35,0,0,0,1.61,3.81c-.72.37-1.47.68-2.14,1.11a4.21,4.21,0,0,0-1.25,1.16,2.72,2.72,0,0,1-1.09.94,5.91,5.91,0,0,0-.76.46c-1.06.7-1,1.85-1.17,2.92,0,.21.19.47.34.67a10.1,10.1,0,0,0,.73.72l-2.76.41a4.81,4.81,0,0,1,0-.49q0-7.45,0-14.9c0-4.58,0-9.17,0-13.75,0-.49.18-.62.62-.68q6.69-.94,13.39-1.93c2-.28,3.93-.55,5.89-.86.46-.07.63.06.75.51Q148.09,148.64,151.72,162.3Zm-8.45-13c0,.52-.14.68-.59.51a6.22,6.22,0,0,1-1.43-.79c-.14-.1-.13-.49-.06-.7s.39-.13.59-.1a4.2,4.2,0,0,1,.85.27A.84.84,0,0,1,143.27,149.3Zm1.2-17a.71.71,0,0,1,.75,1c0,.11-.24.17-.38.19q-2.86.44-5.73.84l-13.59,2c-.79.11-1.58.16-2.39.24-.22-1.32-.16-1.08.72-1.21l20.36-3Zm-12.77-2.5a2.65,2.65,0,0,1,1-2.23,8,8,0,0,0,.77,1.45c.34.4.73.25,1.49-.4a2.69,2.69,0,0,1,1,2.26,10.4,10.4,0,0,1-.52,1.7.55.55,0,0,1-.38.28c-1.06.17-2.11.33-3.18.46a.84.84,0,0,1-.56-.23c-.36-.37-.68-.77-1-1.19C131.72,131.34,131.72,131.34,131.7,129.82Zm10.7,2a18,18,0,0,1,1.45-7.22c-.23,2.45-.45,4.75-.67,7.11a.7.7,0,0,1-.16,0Zm4-14.46c-.79,2.11-2.1,4-3.06,6a19.58,19.58,0,0,0-1.94,8.24c0,.15-.17.41-.29.43-1.09.19-2.19.33-3.28.48a.34.34,0,0,1-.16,0l.91-1.71a7.13,7.13,0,0,0,.31-5.18,7.28,7.28,0,0,0-1.73-2.84,3.06,3.06,0,0,0-.8-.62c-.07,0-.34.09-.39.2a1.6,1.6,0,0,1-1.8,1A1.71,1.71,0,0,1,132.7,122a2.12,2.12,0,0,1-.08-2,2.27,2.27,0,0,0-1.58.87,4.68,4.68,0,0,0-1.44,3.76,6,6,0,0,1-.35,2.64,1.08,1.08,0,0,1-1,.79c-.28,0-.56.07-.84.1-.59,0-.8.27-.81.87a5.55,5.55,0,0,0,1.09,3.19,7.2,7.2,0,0,0,1,1.17c.12.12.4.07.6.1-.06-.19-.06-.44-.18-.56a8.54,8.54,0,0,1-2-3.22,2.59,2.59,0,0,1-.08-.79,8.57,8.57,0,0,0,1.06-.05c1.42-.27,1.88-.88,2.16-2.7a11.75,11.75,0,0,0,.05-1.68,5.24,5.24,0,0,1,1.49-3.65c0-.05.11-.08.25-.19-.08,1.26.09,2.38,1.24,3.05a2.57,2.57,0,0,0,3.06-.83,5.33,5.33,0,0,1,2,4.39,11,11,0,0,1-1.58,5.29c-.06.1-.27.12-.31.14a16.26,16.26,0,0,0,.09-2.3,2.61,2.61,0,0,0-1.48-2.08.41.41,0,0,0-.62.14c-.42.55-.81.49-1.05-.17a5.78,5.78,0,0,1-.22-1c-.06-.37-.19-.55-.6-.35a2.55,2.55,0,0,0-1.34,1.19,2,2,0,0,0-.2,1.36,5,5,0,0,1,.15.94.72.72,0,0,1-1,.83c-.8-.22-.93.17-.7.8a9.62,9.62,0,0,0,.88,1.54,1.43,1.43,0,0,1-.25.08c-1.22.17-2.43.35-3.65.5-.15,0-.43-.11-.46-.23a16.62,16.62,0,0,0-6-8.66,51.17,51.17,0,0,0-11.43-7.07,47.86,47.86,0,0,1-7.79-4.49c-1.92-1.3-3.77-2.69-5.68-4a18.43,18.43,0,0,1-4.84-5.08c-.9-1.38-1.76-2.79-2.63-4.19a.93.93,0,0,1-.16-.53l.55.25a64.83,64.83,0,0,0,17.21,6,49,49,0,0,0,9,.66c1.23,0,2.45,0,3.68,0,.36,0,.51.09.5.47,0,.95,0,1.9,0,2.85,0,.14-.15.38-.27.4-1.41.27-2.83.5-4.35.76,0-.51.07-.94.11-1.37,0-.68.13-1.36.18-2,0-.29.07-.66-.37-.68s-.4.33-.43.61c-.18,2-.34,3.95-.52,5.92-.15,1.56-.31,3.11-.47,4.66,0,.4.16.57.65.49l3.69-.57,15.82-2.48,12-1.87a2.21,2.21,0,0,0,.46-.1c.34-.12.42-.34.21-.65a5.41,5.41,0,0,1-.45-.76c-1.37-3.1-2.72-6.21-4.09-9.31-.13-.3-.21-.5.19-.7A66.35,66.35,0,0,0,150.51,96c3-2.29,6-4.67,9-7l.57-.44c-.14.89-.27,1.63-.37,2.37-.76,5.4-3.19,10.08-6.16,14.56-2.16,3.25-4.15,6.6-6.18,9.92A10.94,10.94,0,0,0,146.37,117.33Zm17-16.13c-3.77,3.61-7.6,7.14-11.37,10.75-1.21,1.16-2.28,2.48-3.4,3.73a2.47,2.47,0,0,0-.27.44l-.18-.14c.42-.74.8-1.5,1.25-2.22,2.09-3.29,4.16-6.59,6.31-9.84A33.86,33.86,0,0,0,161,88.5c.08-.83.52-1.13.94-1.63a2.15,2.15,0,0,1,2.36-.73,1.11,1.11,0,0,0,1.21-.43c.53-.61,1.09-1.19,1.64-1.79s.43-.84-.22-1.17l-.72-.31a46.08,46.08,0,0,0,4.87-9.3,57.88,57.88,0,0,0,2.9-10c.35.6.74,1.18,1,1.81a37.53,37.53,0,0,1,3,9.3,17.94,17.94,0,0,1-.83,8.77,30.45,30.45,0,0,1-6.5,11C168.43,96.61,165.83,98.84,163.35,101.2Zm11.9,4.61a1.42,1.42,0,0,0-1.09,1.35c-.14,1-.36,2-.57,3.15-2.69-3.29-5.28-6.48-7.88-9.67,1-.94,1.9-1.83,2.81-2.75.28-.29.46-.1.67.06l6.39,4.89,2,1.53.41.36C177,105.11,176.16,105.52,175.25,105.81Z" transform="translate(-60.16 -5.79)"/></svg>